<mxfile host="65bd71144e">
    <diagram id="8q4cDm9Uf1knFAuOHGEr" name="第 1 页">
        <mxGraphModel dx="843" dy="1020" grid="1" gridSize="10" guides="1" tooltips="1" connect="1" arrows="1" fold="1" page="1" pageScale="1" pageWidth="827" pageHeight="1169" math="0" shadow="0">
            <root>
                <mxCell id="0"/>
                <mxCell id="1" parent="0"/>
                <mxCell id="3" value="" style="shape=image;verticalLabelPosition=bottom;labelBackgroundColor=default;verticalAlign=top;aspect=fixed;imageAspect=0;image=data:image/png,iVBORw0KGgoAAAANSUhEUgAAAnEAAAKCCAYAAAC+i4+PAAAgAElEQVR4nOzde3DU9aH//ydn2h6b3aQlV5SQNCHcSggJjVAsyiWRQOXYHjRjqxYLIxp+Q86AYgUc7GkZAUXF74HfgNqRg99q60Q9rT9aLiUCSkVpyiVAFQjJSQAlCSQx2U09ljn8/thLPrvZ3ew1u5u8HjOO7Gc/n/fnvZfsvvZ9+wwZm198PSU1lc87Orh27RoiIiIiEvv+KdoVEBEREZHAKcSJiIiIxCGFOBEREZE4pBAnIiIiEocU4kRERETikEKciIiISBz6SrQr4MvXfvQUYyd93Xm7++ivqfvt0SjWyE8zlrJ2dnbP7abdrNlW3fdxeffy+KIi2vc+xksH/D1ZHuWrHqag3c9zAFDCQ+vmMIIual/5JVV1/p4rgm5r46PKepKAzpqJTHn6q9GukYiISEyL6RD35W+foPa3AHcy/JkZfL2vA3yaRMqa+xnefoDaLe+EpX5eHdjCmgPgDFghFje9YiOlWT23LwQU8uKBhZ2V9VAzkXEKbyIiIn6J6RAnhla21fZWthlLWTt7Iw8RSpCr5qXV/rba9YMHuhjJcN5UgBMREfGbxsTFsNzyeylIbGSfsZv0wBa2H+tixOylTI9e1URERCTKBkZL3KjF5C0eR4LjdtfHfLL2Zb70dF/iDAqemeE89OquR7i0P7DT5ZY/ycKixJ4N/o5568Xe0pbourXdft938hKh6c8cdDuq/lgdlqI80vMA+3g2y9VGt3o1sm/1FuexversYR8RERGJH/Ef4mY+SsHcZC69/Ah152ybzEufZ+yaxbYgd+5l6n4G4RoTZxuf1si+1b+0hx/bJIG1qzLYvv516v0uyT65oGk3a9bbA6B9YoNNNkMTwVLX6OX4RIZm4gxx5qKHWdjk6Ha1hcPSihIO2sNlfdUvWVPVc7Qt1PldWREREYkxcR7iJpEybTjdR3/N1XM9Wy17PqZ78bdIHIXL9pDl3ct3s+DCXmPrVTUv7R3H2tl5fCcP6v2c6Zlb/j1G4NZV6q+6ZntrnYFLa2AdVYcbKZg9julUh7elLTWf3flpnu/rruflI428FWCRa/MvwX+PZU3IlRMRERk84jzEZXJDIiRMup+CSff3uvfvmUA4Q1xmMmYa+dB9QsGBj7kwe45Ly1hfRqR47ir1S14GQ6F3kDO62IYF1y7XsLhyijlhmhm7dmMNd38Lzu8sZtyO8JQpIiIyWMR5iLOJm/XjAtJIexeMSMmmVwrLTMZMF/UXfRyemYw5ktULgzWPFbMGW5j7+JVcnlmUzPZoV0pERCROxHmIu8gXXZCSmgn0Q4i72IaFIsbMgIPG1qgZ42wL5/oKVZ4MzSAXesbR2YOXrYWtjr/WdVFQ1LtLdPrYbOg6xl99tLDlpiUDbbSEeyHfCHSnrjk1nLvn/Q+5IVdORERk8IjzJUaOcvXQJciaQd6PJvW57/+0A1mjgm+hqjtCfRduy3uU8NDsbGj6c0BXPjj4SSMkFlHqmCjrfpUHoL7qz1wgm9KKkp6NM5ZSmtVFbZWPSRR591JelIjl2O7wzzy9coo5B/Z7/i+IACciIiLBGTI2v/h6Smoqn3d0cO3atWjXx4V56fPkZnm65xL1P3sOi+PmzEcpmDvcdRfjMiNO9hmqhpU2gllixP0KCpZjL/K0IcF5Xs4DcLvMlct+XcfYvr6Z0nVzwOWKDI5LZHkuw1N9oO+rOtjO3RYbS4w88Bkfz4M3y2/U5AYRERE/xXSIk8jJLX+ShXl1AS6LEiEKcSIiIgGL8+5U8U8JD6261zDmrITSokQsdUeiH+AAGv6ZTi4x+/F/RLsmIiIicUMtcYOF25g79y7gqHvgMz6edwmAzpqJTNF1VEVERHxSiBMRERGJQ+pOFREREYlDCnEiIiIicUghTkRERCQOxWyIS0lN5StfifMLSoiIiIhESMyGOIlP1VvKol0FERGRQUFNXRIwT0GtZOken/v7ul9EREQCpxAnAXMPZKG0vgVzrAKhiIiIQpy4WbGyjLmZ0PTuHhZSSPWsDLh4nJINzUGV11crXDgCWfnD06iYYMJy8hA/OJbB7xeMwmw5x7aV9VSFXLqIiEhs0pg4cdHYbgWsXL0IXOzEEkJZ/dWNWtVqq2VbqxWOWGmL+BlFRESiTy1x0idLe+8o11c3aNTHwXVY1QonIiIDmkKceHfEStsCSPZyd6S7SYNj4aoFsqJ0dhERkf4Ss9dOjcU6wUge+MWDjD77K3ZwD5XFifbtTexcvhWX2FK6hM13GKOEcZ+ZPLJpNvxhL9wxmxyg4Q+rOJ2/nnnZ0FnzK5547bzzyLJltu0ODX9YxfP7etcut/xJFhYl9svF7d1b2vydoOAp3AUyuUGTGkRERGzUEheEpOIHqWzcS+Xy/TgC2bxlM9nzwn7bDmPu4an8T6hcvtV+hC38zfvFPTT8/A3O2rfm3DGVmm2rOD13Pbfduprbzv6Kza33UFk8m7LXtrLHflxxu+Nc9rIr1vMInoNctDjClSPcBdKdqmAmIiISOE1sCEbjXiodgY39nG4EhqYz2nH/mTd4wnk/wHkOn+2CpGRyXMo5zI4ztn8mJbXznqH1DYDS2RQnNbHTWNaZN3ivEXLyZ/aqVn3VL1mz+rGIt8I5VG8pc/7nzhHkREREJDLUEhch7l2gNu0utzpbmww32mhw23t0xlAgkXmb1jPPvahOW2g86769nwTTlSoiIiLhoxAXAbYA10XNtnXOlrbR962msjiY0jyMt4sTgXarioiIiP/UnRp2Ixk2FJeu0mCdbW4HhjJsTDjqFR3qVhUREYkMtcSF3Xkut+McI3cWRytcIu7dqX3at5eaWx+kuGIJl/1ojevP2al9MbbAeWuRCyXcBdu6N71iI6VZxMRzJCIiEgqFuAjY88Jexm+aTeWmQtuGzuNs/kMylXcEWtJ5dvz8V/CLB3uNi/O2zEh/8TUL1dM2T/tGo5v1wtUuyErEXDSH6VVbONjvNRAREQkPrRMnQfM3wMWWEh5aN4cRXcfYvv516qNdHRERkSBpTJwEzVNYi+0AB7nl32MEcOGwApyIiMQ3dafK4JB3L48vKsJMF7WvPIaGw4mISLxTd6qIiIhIHFJ3qoiIiEgcUogTERERiUMKcSIiIiJxSCFOREREJA4pxImIiIjEIYU4ERERkTikECciIiISh7TY72AzbAOvFOeA5RgvHdjAh712+An/Pm8eWYYtTTX38O+X+6+KIiIi0jeFuEHDHs4+O0atBQp87JN6ZjOLzh2ybRq2gVeK3+DfFeRERERiirpTB4VpLJsxD2ruYdFfD3nfbdh4smjg/XOGfS6fpglITZwW8VqKiIiI/9QSF4TR962msjixZ0PncTb//A3O+trHoXEvlS/st98YyQO/eJDiJMedXdRsW8eOM+4H5VG+6mEKEruofeWXQVz38xAvHPAR3lykc6MZsNhvmoeTClzp8vd4ERER6Q8KcYEqXcIDvEHl8vP2DTN5ZNNsKpe1OMOZLcBBzbZV9kBm2yfHJcDZtqXU/IrK1847y95csRo8Brl+cHkntZZKCmY4uk9/wr/PKCLBcozd6koVERGJKQpxgdq3lSdcNuzndONscoamMxo4C+SkJULncQ6f8b7P6PumktN5nM2OAAewby81tz7I6OKRcMawnTqq1j9GVSQfF+BosfvuqFd4qPgNXgG6jePjREREJGYoxAXMvQvUrrPnnw2tXZA9kqlj4Ky9JW58NnTW1Di7XHPSEiGpkMpNhb1PkZYFnO+9PeKmsWxGJQXmBvbsXMkb5pVsmVHJK2Pm2W5HoUYiIiLimUJcQBwBromdy7eyx761bNl65g3t2etsczuQRXHFeoodGxv39nSbOngYSxdN3x21qCfAAVg2sHSnbcZq2Xd+wht//b/RrqKIiIjYKcQFJIuUJOis2esMcL2N5IFbs+is+RVPuIc2A1trXTI5EDMhLjvJBJYOGl22NtBhwWXdOBEREYk+LTESkCaudkJSWk+kKVu2nnnZvfc07uPJ2dcO00AW835xD6P7PG8e5as2snbdk5TnBVxpv71xqQHMRdw/yrCcyLB5FJih6ZJ7K1wJD62LfJ1ERETEsyFj84uvp6Sm8nlHB9euXYt2fZxisU4AjLmHpyoKcQ6Ja9zL5tapVI4+39M16r6Pk2s3rHPWqss+npYZCXWJEWyTFcaYPN7nckUGxxUdvN3fq05A027WbKsOvFIiIiISNIW4sOtZOsS1O9XTMiNxbsZS1s7OxnLsRZ4OJlmKiIhI0NSdGm5j0knxsb2ztamfKxQpeZRPzQYa+VABTkREpN+pJS4SSpew+Y7eY+Ia/rCK5/dFoT5hllv+JAuLEqHrGNvXv059tCskIiIyCCnEiYiIiMQhdaeKiIiIxCGFOBEREZE4pBAnIiIiEocU4kRERETikEKciIiISBxSiBMRERGJQwpxIiIiInHoK9GuwODlft1U9+uqDgCmR/nN1Ik4r9hqPcFzh5/joHOHDLZvKSSLZnYtPQ4ry5ibCU3v7mHh24GcyFZO8slD/OBFa0hVXrGyjLnfPMe2lfVU9XG+nuWcbfV/NqQz+zA5l98vGIXZco5tK5uZsmEaRWYrx149xIojkTqp/bnIDOE88wupnpXRc/vicUo2NIetfn2d1xKG94Mv5Q9Po2KCyXaeYxmG18jXe8cHx/MVdBl+/h34+X6anrONR0cmOG9bz2/lxw2HA66ViESOQlzU7Of55bZrqI6+bzWVxVGuTsR0U3O4gl96/E6xcNUCWXTSCNBuhUyTpx1jTDMLl9ritu2LPMKnO2KlbQGYO6xUYSW7AzBH+Jzh8PZxSt4GMPHshmkURbs+YVbVaqECE22t1p7XKNqV8oef76eDDRUcbACYypNTlzCun6spIn1TiJMYY+XqxWjXIR5YuBzBVjgJUoc1uFY4MITeaND7SSQeaUycxIyqVku0qxAXGtsj10XY+zxx+OV+sRML2FrI+o2tVTke9df7SUTCTy1xQRnJA794kOIkx20P49lKl7D5jp5RU3QeZ/PP3+BsyOeChj+s4vl9PbdH37eaytHn2fzzFuYZxtl11vyKJ147771OHsqyKeGhdXMYQSP7Vm8xjGELNysrVhqeNa8tEe5j0OhzfJVjvJJjvFqjvduz1/gu+/igNuM4vA4rVS7juYIYF+apXG9jlvocO9bTfQtQ9eKh4Ft7AuD9PLbu0VENh/g1Rfbn2VbPgMcGzi+kepbZ9fl1ee4c5zrOuZxCisxgOWk4r6f3wZF6fnCkPsBHGwSX96vbexnw+3nyZ+zg/EKqZ8GupZ8x3vC30Ne4P/e/g2ft54/G+0lEwk8hLmD2CQmdx9m83BHKZvLIspnsecF1jFvNtlXsOAOOIFa5KTnAyQv2czXupfLntrJtQWw9T2W4BbSkQio32UJZ5T7HfvfwQM06Wx3G3MNTd2R5CW2xzMSzGwrJCmBQvOOLy2WCxIvn+P6WQkYVmeBIz5deedFNmC3n+LUxPGYWUv3Nc2xbepwq7AP85+dSfiTIAet91tXCrqV77F+wti/+6pX9NAkgBOYJ06iwnGPb0nqq7PWeuyGXxmAH9vs8VyEp7+5hW9o0KnKKuL/jHCXv3kj1rFE8O7k5ohM8QtXn8+T32MEM5m4xc+zVPSw84njvFPHsZM8/MDz+HYjIgKLu1ACVLZtNDk3sdGlV28/z9gAHM5lXnEhnzRv2AAdwnh2vH6eTLMaX+n+u0fdNtZ3LWTawbys7GyFpdDGjXfbuomabIaBdaKOTRFJG2G+PSCaJLq5e8OfM1by0+jHWRLQVzl9mUsxgafevr2rFyjJ7i5v7F1czpy+CecIoVji3ZfD9CSYsDc2uocNtduCz757DYr6JKZNDfCi92M7f9K6x9crKiiPNkHmjoZ4xyuV5stc7Is+T7Vx/dLyeZjj3bmwHXBdhe55cW4Srjn2KBRMpmb339P53ICIDiUJcQEYybCjQ+In31rQx6aTQxdma867bz9RwthNSMkb6fbactESP59pzqgmSkg3LkwC0c/mM4eaZN3hiuSHU7dtLTWcixRXr2bxpPY8EECajq5k/nrRinjCN6i1lVK/M8LqnecI0+xIlnlsmnn33HBYyGD/fvmH+jWTRzPt9LUNxxEqbly/LkEw2kQxkzSqzPTbHf7MyADPDIhGGwsl9EP/FTq+hIrznirNxev35PNH334GIDBzqTh00zrPj56vYAZQtW8+8O9az+Q4P4+ZikHPMzvxCqmcVUr0Fj2tpWU4e4v2h05g7axrPXvTwBXakmXPzR1E0OgNoZsVo21pifY7hsoettrA9IlcDq7tLs4v9E7nnqc+/AxEZMNQSF5DzXG4Hhqa7dWUanGnhKomMLnZrcRtTzOgkuNrsf2BqaO2C7LGUuW0vy8+CzjYaAqi50Z4XVlG5fJWXbtkY9vZxSpbuoeRd791Rz244xDGLiaIFhR66I41dlRmMz/SjFQ4gMwlzJL50j1hpA5LT4mFtPD9kJmGOt1ayaOiH58n334GIDBQKcQHas+s4nUmFVC6badhqm9hgs5/TjZBUfA8PjHHcP5IH7i0kqfM4OwOYVHC25jydZDHPeK7SJczLhob3g5npamTvGm5v8VBOCQ+t28jadUuZHtI5IqM8zYz3LjUrK1Yep4kM5m7x8AX29mfO+7IufubHTMoMts/KgIvnAmvR6BXQPMywNXQVb5/fq4Sg5JY/ydp1G1lbURKeAv01OZffz8rAcvJcYLNT3bsWHVcTiEAVjeLueQpYH38H4ZR3L4/H8OeFyECm7tRAnXmDJ5a38Mim2WzeNNu+0bbEiMOeF1bRcN9qKivW47wQQ+NeKo0TFMbcw1MVhfSsHJLIvE3rmYehi9PjuboMs179Z5sxm+i60b1Oscjjl3pfS1k0s/DVc/x+wSjmbpnGMJflQWzBqWICHPMwOL6x3QqZo6jYMooK+zbLyUOUGFvsetXJxNwtZczFuORDMwvfbaZ61jRb9699UPrV+dMYZThf1YuH4OFpVMwqo3qW4Y4gL1FV39oGJELW9yjPq6aqLuAi/Jdp79q2c+8W7lnews5c6PJcrDgCHKnn10U3GR6/7bUdv6UwghWPw+cpKL7+DsKorpl2wEw23y3P42BEn0wRMRoyNr/4ekpqKp93dHDt2rVo18cpFuskATI9ym+mjuJjr5fdio7yh6dRkfNp8Ne4jGl5lK96mILESK7xZ18KoyP2l0HxTs+T/+yX3brs/dqpueVPsrAokQt7H+OlA/1cPZFBTN2pMrjML7S1wr09EAMcMGMOBYlgObY7BpaHiWF6nsKohNKiROg6xj4FOJF+pe5UibAEiqe+yjsA1hM8d/i5qHxprlhZxtxMCL2LKlY5rrKBWkN80vPkr+k523h0ZILztqfG9OkVGynNApp2s2Zbdb/VTURs1J0qIiIiEofUnSoiIiIShxTiREREROKQQpyIiIhIHFKIExEREYlDCnEiIiIicUghTkRERCQOKcSJiIiIxCEt9iuRl76WdwqyAaivXcCylijXR0REZABQS1ykjLmHpzat55HS0IsqW7aezb+4h9GhF9X/TI/ym4Js6msXcOc+BTgREZFwUYiTiJqePgqT9QT/pfAmIiISVgpxIiIiInFIY+KCMPq+1VQWJzpv/+//dnL0pQ28euY6o9zuS7pjPZvvcNxqYufyrexx3juTRzbNJsdQdsMfVvH8Pk/3FVK5qdB5q7PmVzzx2nlgJA/84kGK2/dS+cJ+5/1ly9Yzb+hxNv/8Dc46NpYuYfMdWS6Pped8Ro6LhDeyb/WWqFywXkRERHxTiAtU6RIqi6Fm2yp2nOnZPAS4Dpx9bR2Vr2EbE1dRyFWPIQls4Wssp5ev4nn7ltH3rabyjtU8cGEdO87s5/nltlDmMZAFasw9PHVHlpfQJiIiIvFGIS5AozOGAu1cPuO6/XrAJZ1nx8+3umw5W3OezuJCUkYAZzwfFbQRySTRxdkL/uxczUurq8Nw0qlMH5aA9fIHas0TEREJM4W4AJ197TANxbOZt2k98+iiZts6lxa5gHjo3gS4GloVPdu3l5pbH6S4Yj3FeOtGDZepPDl1CcWmbmoOL+DH1kidR0REZPBSiAuYo5vTPhbNRyjy2TpnD3A9Y9twdsFGxnl2/HwVO7B3z9rH6rmcP2wO88vDh7GFuVd5x7KLO0/+JsznEBERGdw0OzVotlBUufxX1HRCTv7M3rtcB4YM8Xi0rVu2iffCHqD6tueFVVQuX8XORkgaXRzB9ecOc/ByN5hvYnrEziEiIjI4KcSFLIuUJOhsbXLdfKaFq1znW+NneMxxZ5vbgaEMG2PfYG+FS/JwhobWLkgaydQxHu7kPJfbgaHpzjBWtmw987L7qvdIhg0F2ls8TJYo4aF1G1m7bqnCl4iISIxSd2qAPAUkz12S+9n0YjpPVczm/zx3O0OGDMFliZF9W9mZv5559u5Y6KJm215SKmb3OufZ19axM824r+s597ywl/GbZjuXIOms+RWbW++h0tDE5r4sCgCNrsuSiIiISPwYMja/+HpKaiqfd3Rw7dq1aNfHKRbrFKwh9qa469cDn8Ma76bnbOPRYed47vBzmqEqIiISRupO7QfXr18flAEO4KC1FUwT+df0aNdERERkYFGIk8hqWcNz57vJLXiVd0pf5QWFORERkbDQmDiJuIMNFRxsiHYtREREBha1xImIiIjEIYU4ERERkTikECciIiIShxTiApCSmspXvqJhhCIiIhJ9CnEiIiIicUghTkRERCQOKcSJiIiIxCGFuLg3kgd+sZ7Ny2aGXlTpEjZvWs0DY3zsM+Yentq0nkdKQz9dOJU/PI3qLWX8/mETTM7l91vKqN6QS3m0K2Zkr9f2+cEdZ3s8Jp7dUEb1lmk8OzkitRQRkTihECcDQlWrBYC2ViscsdIWSmHBhq1IcTyeDitVWLncEe0KiYhILFCIk4Grw0pVtOsQMRYuH4l2HUREJJoU4mQAsnDVEu06RE5juzXaVRARkRigRc8GiM7WJkbft5rK4kT7huNs/vkbnDXuVLqEzXdkGQ7ysA/tXD4zk0c2zSbHsVvNr3jitfOGfbq4emEkD/ziQYqT7Jsa91L5wn4Aez2gZts6dpwxHDbmHp6qKOTqH1bx/D7D9hlLWTs7G5p2s2ZbdXBPwNvHKXnbccPKipV7PO5W/vA0KiaYDFusHHv1ECuO9L7PPKuM6lmOW83sWnqcZwHmF1I9y+w8DrB1wS4YRdu7e1jorIeJZzdMo8jsWoc2432cY9vKepcWQ1s9LD3no5mFS3seT9WLhwZwC6OIiPhLIW6ASCp+kMrGvVQu3w/YQljlshYPwWqVPVjZQljlpmR2Lt9KT0TIYt6modRsW8XzZ7AHv3t4oMYYyBIprniQhj+sonIf9nA2m0dK9/P8Pjj72mEaimczungknOkJf6OLR5LUeZwdxgDXn+YXUjEBjr26pyd8GTjDkcdAFqgMtm8pJOvicUpWNts22cu1sbLiSDPVs25iyuR6qpz1MTElx4Tl5DF7gBMREfFM3akDhaElDPZzuhEYms5oAGYyrziRzpo3DEHsPDteP04nWYx3mWna5dqCtm8vNZ2JtkBm0GBsTTvzBu81Qk6+Y4as7fxJxbMpcx5hr8PZGreWP+DAFtasfiz4Vjg/laeZ6a+xZOUPjyKLZnZtaPa+09uf0YSJolkZPdvmj6LIbOXcMXWZioiIbwpxg8GYdFLo4mzNedftZ2o42wkpGSM9HwfAeS63Q1Jalo99oKG1yxAaYc8ut4BYOpYcmnjvtfPeioi4qhfP0UQGc7dEfomO7KEmuPhZH61pzfzxpBUyb2SFfcuK0Rlw8ZzHlkIREREjhTjpw0iGDe17r5y0RNcN9oDoaJ0ry8+is2Yvnkeq9Rfb2LKSpYc4ZjFRtKCM6igvJVJ17FMsZDB+PkAG4zOtHHvXR+udiIiInULcYHCmhav07hJlTDGjk+Bqs6/WsSxSkmwTJ7yzB732FkNX6Xl2vN8E2WMpYybjs6PbCufKNvHBFuYga3RG34cE45sm18WGM5Mwu+9zpJ73L9rrMP9GstQKJyIiflKIGxQcY9TuMVyNYSQP3FtIUudxdvqYaFC2bHaf3aCj77uH4qQuanbtd71j3yc0kMW8TbPJafzEeyvcjKWsXbeRtRUlATymcDCTYgZLu9t6JPbFdb2Gu4udWDCRkmm/bZ+wYAxoz55tBvMovu9o5ZtfSPUsz+U9e7YZMm33N50NrRUut/zJKD2XIiLS3zQ7dZDY88IqGu5bTWXFeoodG10mQwAX2ugki2LjPp3H2bzcsAzJmRauAjl3rGfzHY6NTW4zXB32s7Nmqm1WrHvAi4IVK8uYm+m6zXLyED940X0SQTMLXz3H7xcUUr2lZ5tzyY8j9fy66CYqnEuQ2O4bv6Wwp4i3j7MtbVrPPpZzbFv6Gd837uPc9xzHJmdQxDn+GPRsWJv61jYgEbK+R3leNVV1oZUnIiKxa8jY/OLrKampfN7RwbVr16JdHyfVaWAYfd9qKkef97AenfSwrRk3qsFToAxUHuWrHqYgsZF9q7dwMCz1ExGRWKTuVImc0iW2VrjXFeB8WbHStujvr0MOcMCMORQkguXYbgU4EZEBTt2pEnZly9YzLxt6rTknBvbFgMHW1ep21YbAlfDQujmMAC7sfYyXDoSjjiIiEsvUnRqAWKyTiIiIDE7qThURERGJQwpxIiIiInFIIU5EREQkDmliQwCuXrkS7SqIiIiIAGqJExEREYlLCnEiIiIicUghTkRERCQOaUxcoNLX8k5BNgD1tQtY1hLl+oiIiMigpJa4QLWs4c59C7iztpHcgm08aYp2hURERGQwUogLVssfqbEmMC59arRrIiIiIoOQQpyIiIhIHFKIExEREYlDCnEiIiIicUghLmiHOXi5G9PI77Mo2lURERmlQzoAACAASURBVBGRQUchLgQHGyq483AHt5e+yjtTH2V6tCskIiIig4bWiQvBogmv8kPzCZ7bt4CD0a6MiIiIDCpqiQvaVDLNYL38gQKciIiI9DuFOBEREZE4pBAnIiIiEocU4kRERETikEJcsEy3MM4EzdbD0a6JiIiIDEKanRqo9LW8U5ANgPX8Vpa1RLk+IiIiMigpxAWqZQ137ot2JURERGSwU3eqiIiISBxSiBMRERGJQzHbnXr1ypVoV0FEREQkZqklTkRERCQOKcSJiIiIxCGFOBEREZE4FLNj4gB44DM+nncJgPM7i5m3I8r1EREREYkRsd0St+NGxpUXM27ncEbOO8/226JdIREREZHYENshzmFHKh92tfPtqf+Idk1EREREYkJ8hDgRERERcaEQJyIiIhKHFOJERERE4lCchLiv8t6ZoSQVX2FttKsiIiIiEgPiJMTB9qdHMm7zPzO7qoaPX2ljYbQrJCIiIhJFsb1OnMHajTXcnZLLM+XFbI92ZURERESiLE5a4v5BZgp0nklUgBMREREhbkKciIiIiBgpxImIiIjEIYU4ERERkTgUHyHuti6+nQitl78a7ZqIiIiIxITYnp36wGd8PO8SAJ01E5m3I8r1EREREYkRQ8bmF19PSU3l844Orl27Fu36iIiIiIgf4qM7VURERERcKMSJiIiIxCGFOBEREZE4pBAnIiIiEocU4kRERETikEKciIiISBxSiBMRERGJQ7G92K/B1370FGMnfb1nQ9MBare8E70K+WPmoxTMHQ5dH/PJ2pf5Mtr1cZO+5BbuLbDypyUnOB3tyniVzl1bJzLCebslBuv7D7a/coJvn5nIlKeDuKpIfi5vzIKd/1HP//XrgG/y9L/l8i06XI5Zu7GG2VeCrIMXazfWcPe3AIbzZvmNrAlbySIiEqr4CHEzH2XsJLj08iNcPRftymAPZ8lcevmJ2KhPnBv/xO3cPhyuc50hQ4bQceIDdrxo5fp1gBbeWvInwBE6o1pVj9ZuPMF3yeWZIMPTT/K+CZ2f0uDvAek3kOZh85r/L5fZlSf46PHwBLmFj5/n7m8pvImIxKq4CHHm8cOh6UD8Bab9z1G7P9qViGX2VjZLHa//Pw20AEOGDCGtYir/etcH/Ndb2INc7OoJOslsD6qEGxj+TaDjCw75e0jLZRb9x+Xe299LZkrO//DxvCa23zaShe8FVSG7f3DbmHY6a7IU4EREYlQcjImbxD8PjXYdJBLGPzGREbTwp8dsAQ7g+vXrtGz9gLffjP0Ax21tVBS3c35nKC1VNzA0CaztX4SnTjtu5M3/bue7P21jYXhKFBGRGBUXLXG+mJc+T+5Q1zFntvFzbdT/7DksYO/+hPqfneMbz8wgxb5f99FfU/fbo64FjlpM3uJxJDhuG8bemZc+T25Wz67DFz/PcMcN47g3x1g4D2W4upPhhvrA3127aEctJm/xt2h/+S340f0MT+yrvD5MyWHhT/P4hstGq9tOJmZuvIWJ5p77T/znB+z/yHWv8U/czu2ZPbcvVP+Jt950LeNb9R/wByZyb4HJvt04ni2dsZnweW1dmMa3udc7mDrZuT9PljpeNwRNh4VT20nqymXbDh/VSh/GKz+6CZNzg+s4NkfXaOvVL/jJDycxz/7+sp74G4sOfuG9nM5P2fyflz223tm6Veu564Fktvuqm4iIxLWYDXG9JjIkzqDgmRn2G38PYjzacHKfSebSy49Qe85R/l2k/PVoTzn28NV99NfUOsLdzEcZPhMu7QfLlkeode7nY0ycsxt1Eilr7me4h10cYRHDub72o6cYu/h5btj1CJec3bBfZ/ji+7m66xFbmTMfpWDuDIbPfMewjx/unsiyknQuVP+J7fZg03uMma17M6n2A17Yau057qe3AI4gZw9LHSd4YYk91kzJYeFPb+cujKEJvlFwC/da6nh9SQMt9uNu35hD62MNtEwxkQR0trqHyGDYu2UvnuCFx1oMj/d2FqZ9wPatPef4RsEt3HvRUXfbcbc/kc7pp4zHmTjxn39yBtfxT9zOvRtxC3K27kauZnjtRp02/dtUTryB/373KItOAdzAyp9+m3k/HUaDI4ClJ2DiCyiexMyGv3HP776wT3TIZeXHf2NDC7YA93145T+O2o7Jz+WNWclMS7/MIfdkCfBeIn/7KXx72D+A8E1yEBGR2BKz3alf/vYJan/2CLU/+zWXurC1Pv3sEft/wUwocA1+X/71v+nm69zgbE26k+FzbWPvXFrn9j8XWFjyk7lsHAldH9NkONeXv32LS12QMv5Ol32vGkPd/nNcBb6eMSmAs5mYOSUdLp5wCVnu0pfkMcJSxx8MoYc36zhhMfGtSfY2oLvzmGhu4U9PGdLDRw0cuQgjxqS7FujSgmVl/0ctYL6R8VMCqLqRl+7V9CV5tm5ZY53ePMGfLsI3ctNxqdXFE7zg3K+FTy4C3zTZ97E9T5/XnnBpeTy9r47Pe9X7f0hLhPOnzHiUPoxF9gD3+CnHxi/YUNMBSclMs1dqWsoNwA3QYGh5a+nGyg0MdVS85TKLvLS6efZVLl6FpDFdwXep3tbFtxOH8rfDCoEiIrEqZlvi+t2oDL4OXD3dH8uW2Mb5dZ/7q9uyI0fpOncXjMrgaxDGJUlMJJvhwkeemm16pCWbwJzHvVvzet+ZbAKspKeZABO3b72d2933sdjCkPMsHVbXLsgLnXxOOskjgAtBPRCPOS4t2QQXe3fLnj7Twu0lSaQZ6+ST7Xn6RsEtLNva+97kEYAj3N32pa0b1EtJ08YlY+r8lFdOedkBgBuYlnMDdH7KKwf9HxM3LeUG6Gzz3AoXqtva+KiynqSuXJ4pHxnkZA0REekPCnHiysv4L1ehrNVmpe0C8JGVzp9CUpotHPpliOH/EZz08HmtaxesR+99jdZKb3faw5mHGaeuAcw+qeFEh+t+6QmY6GC/xwDovexern4t8BD2XjJT3ku2hbmqGu7aWcw8jasTEYlJMdud2u/ONfN3Au2mDNZR/qcdEkZ9h6+5bJ9E4qivQ3tzRBYGtgWmHmnJrrdb26xgTvK4BplDS6sVMJEeTJfoiCS+gZWWj8DRlfmNgjzG+3v89Z4cZ9TaZoXMG3uVM35MOlg6vbaW9WalzQLfcHtePPtnWrtgZL7F79Lhm/zLxBuwNthDm2FSQ48bWFn8TWhq87Lwrz+zWf9BZgp0XvnnAOrm5r1E/tYFacP+EXwZIiISUXEf4r688ndITHKGoV4TIvz2Dq1H/07CpPsZPtOw2T6xwcXFTrr5OkO/E3zgs5y+BInjyPpRTxlf+9FdDE/8O5f2hLtLt3dgcp9dCtCytY4LpHP7xhzSe5VhZx8jN/GnE/0PX2Cb/FCS7jIb9fS+Oj73cL70Jbdw192GDc7kdt3jsiMtRz+zlfOEoZS7J3J7Jlz4qK9WRSP7uL3MiSxc0leQ+yrvnRkK3+piba/7vuBQwxeQdRMrnVWyX2XB2HVqn9TQbqjgT374bYqSOtj5uw7Pp02/gTS+4OzHPkLcbV18OxFaL2s8m4jIQBb33alf/vYtLo26n9xnnrdtaDpA7a5RFMwNpqwnqG1+lIK5z5PiOL7pALVb3HY89zJ1ux6lYO79FEy637bNsMSI95m1hskV+5+j9uJi8hYbyuBSz7IoYXb6qQ9I33iLcyzb57Uf8MKZPJaVGPdq4a0lJ7hr60S3cXHGZUas7H/sAzCU5eC6pAeQOdFlbFmv+z9qYPtHLczceIvL+T6v/cA5g9a53Md17GHOTOn/W8rtDKGj1n5lh48a2P6Rlbu2Gs9ndZlh6rc3T/ACE1lW4jYuzkM38/bDQ6kormf246mscbtCwqGDfyNn6CTm/WgSbzhqdOJv3GMc+9bSjZVvUmTYh85P2fwf3icxTBuXjIkvuOQjma79l/q+lz4REZG4N2RsfvH1lNRUPu/o4Nq1a9GujwwIhmVInorE6HsY8k9D4Lrnlrn+tPDx8/ysOKGfLk1lW6KkqKOee7y11D3wGR/P6+bDzaFfsSGk68GKiEjExX13qgxO1/83+gEOYPvTWXzYdYm7qz7z0K0aihtY+dNJvDL9BueWadNzKUr6gmMfeAlwt7Xx0bxLdNZkhRjgwLlMSfGVMD8uEREJF4U4kZB8lYWLJvJh1yVmPx7OSQBfsOGPn8LEb/PGv03ijX+bROXEL9j5H/YFgD1Y+y/1UBO+lrM1j020B9QaPg57SBURkVCpO1VEREQkDqklTkRERCQOKcSJiIiIxCGFOBEREZE4FLMhLiU1la98Je6XsRMRERGJiJgNcYPR9BLfKxT3dX+g+wVaRrjLDba8cB8XyuMK9TmJxTpFu3zjefr6L1znicS+wZQTjbqEKpS/6VDf5/3x/ohVkXp84fx8jbU6DkRq6oqi6SVzOVi9K+D7InneeDpHtLk/Rn8fs7f9gn3O+jrOn/t98bdOwXyw9lV2KPUON8f5vJ23r8cS7tfdW/0CrVc4HazeFZbH428ZsfT+kN4CfT8E8lnV1/dnIHWMZwpxURTuDzxvocL9Dd0fb9pwPbZwuW3WnLDWxdNj8/cx+3qtguHrvP7Wx33fYOoXSpCMdaEGYQjv6+7tOPdt0QgygT5Pxm2x9rnR3zw9P5H8MR/ofcH+oPP3O8j99Q/lu8vfH9TxTiEuDFInzGU8Rzl4stnrPgk5t3Jzxqf85cPzdPdRnq8vU1+Mgc39uEDe/L7+iNw/cAMp09e/vQUQf8oz8lTObbPmMGTIEOf/Pe0byIdFXy0ywQQefx6/rzJ9fSjGs0h0Kwf6nPT1ervvF8jrFOrrHmmhDOHwN2SGEmqj/iWcNonpBRk9t1s8fQ9kML5kEqnO282crj7KFS9F+vpcCqdI9gKF8z0b759hkaYQF6qEkeSkW2g47D3AQQY5uWau1PYOcP580AUi3L9kQ/mA9RQiAwmo4fqQGTJkiG1/R4C7ft1r2HVs8yXcXzp9tUT4amUL5DyO8vtbqK2MvsoN9FhvgczbjxNvrdzG+/ypU7hf92B+5AUjlOEBgQqmnKh3p7Ye5WA1gJms795Kjsedmjltr2dCzq3cnBv4afp6X4Xy/Pszls3fbktjffz9m3EX7vdzf7ZuRoNCXIgSMm4iwfopV3w1r6UNJ5VmTre6bvbng91fvv6YAhFK61Kk+NOV5ev+646LrIZ4sdVAvqAdvLW8uIeDcHyBBVOmrzATji+IWOVvEA/XD4lwve7+tALHIn9/cAz0L9xgBTtUIpTyjefx5zhPvT/h+MERyOerv/UcSBTiQuK9ha2HmayRGXTXv9+r+TyYXyne9PWlFMyHY1/jGrydO5Bz+CPU1kVjF6rDdXtrXLAti/60knjjaZ9QH2OwZXp7TOFsXfFVx0COD/b84XpM/v49+FMXh0Bf977eg4G2KvsrkM8Pf+rV1/6h1Euiy58fhuD/94a/rYCDlUJcKLy0sLlIyCDDZKG52dIvVfLWTejPF5mxdcB4TF/HGXn6wwzmj9pfoXwBvPfu7qDK8NVN0NeXcl+tPsG00PhbZrBlOMoJlKf3U7CBJVihdOt4q0swLZThft2j0TIeidaMcP1wDUjCSG6eehPNh49Bwa3kmOzbXcaz2btHra5j3FInzGW86axfY5uDFY1wEs5zhtqF6q2HKpjvo8FAIS5othY2WrwPUAVIHTmaBOtZ392tYRJKV02wwcMfwbT29NXV7KsLxlsLmcP169cZMmQI1w37B/vl6ekL3Vd5wbSk9PUc9VVGqK18/tTF3339CbnBCiTIhtKV6e3962+3bDhe93j/Agu2CzV87w8zOVNv5UrtLg62Yp+gMInxabt8/yjvB94CTSRf975aSv0VqToG+702GCjEBcvewtZQ63tCQ0Y6Hrtbwz2mJZxBy1N9+nusij8f4sG2pDBkCNNnzQlojJynL3D3co2vga8WTU/l9qqjHyLZnRVK8PGnVc+fkBtouZHi67X294slXK+7p7/HSLSQBSLQL9i+WjJ9PYZwvj+u1BoCW+slrpBBgtkMrf3TaxKoSAaYUN837q3t/pQfzOedAlxvCnFB8qeFLSFntNfuVm+tRZ5+kfsj0C9Ef4XzF3Gof4ChtDS6cIS3IUOc/w6kud/9tr8tYsZt3lr0jPuF0mLl7xdhKN2K3s7rT3n+Bp9wvIe9vV/8Lbuv1zqQ7qJQX3d/7jcKZ6gLR1nuXezhKEtCF2xLnKfw5utvI5TXLJTP/Wj8uOkvCnFB8d7C1sNMaoaZ7vpjPrtbHWL5AykWxiP421rU33Vy1MN9e6TDSV+tcIGEKcdx3soL9NyRFMov+nB8AXgLdOFoofRXNN7v/oRU4+Pz9oM00q2G/d1j0N8i9ViCfS0i+Tnn7f0U6N/xQHr9PVGIC0Y/TmgI5g0Y7jdtOFq/QjnOUQdfdfO1j1dBLjni63z+Pk5/v/ACed7C/UEX7Ln91R/v7UgEZm+tD4EGuVBf96Df9yHyFGr9aRn2p6Xan7J8GQhf2NHqEvcmlIDX1/vdH7H4Az6WKMQFzPuSIUapI0eT0HKUJj8mNITjzRjsOBJ/BRsoHP/31bXo7fi+9nEvp69w5a/rfYQ7X+WHq76BivYHXbjPEXKXOYEFB3/L81WGv12dobzu3loFI8lTl6/7/X19Ucfi+8M3C91WwGQmgWa6sc9MTQesETidQaRbK/tToD+yPb2uff09+SprMFCIC5RfLWyO7lZfkx5swtENE4lfUd7OE2h9jX/E/pTv6d+B1M/f+9zrdNusOby3fw+3zSzj/f17/DpfKF+ovlpwAmlRC7Wl0p8WFG8i2bUTbIuiUTi6N311pXoLK/4838G+7t6O8/RvT+cMhq/XwH17IH/vwX42hev90ZcrJ49ypWQSN5eMBqC7/n3+YiniZsNVtmxXYDD3bDBNYnoJgIWGw+/bfsQnjOTmqaNJcO5kZrz9sXfXv89fGnq+S/z50RGJH/2BfA74CvGejvH3x0s4vjf82e6pjvFsyNj84uspqal83tHBtWvXol0fp1isE/i3TpDtD9vq8/p4EPnuKn/GpQR6rlhowo5UHW6bNce5dpy38xqF0pISaDeaty/uQOoQze63UN/n/nzYhqurJhLHhut1jxWBfCEHen8w90Xq/RGrYu194d4aC9EdOzuYKMQFxHYhY2p9rSVkWyQyo9n1F5aIiIhIOCnEiYiIiMShf4p2BUREREQkcApxIiIiInFIIU5EREQkDinEiYiIiMQhhTgRERGROKQQJyIiIhKHFOJEREJwV/YUdk/O5i5fOyVk8+aMKWxI8LWTiEhgFOJERERE4pCunRqku7KnsDgnAVpPMcf75RsgNZ/d+Wk9t7vreflII28Fed5FE17lh+zizpO/CbKEGBXm56m3PMpXPUxB+27WbKv285gSHlo3hxF0UfvKL6mqC+7My8fPpCytlT0HTrEpuCLCpvzhaVRMMGE5eYgfHMvg9wtGYbacY9vKeqr8LsXEsxumUdRxnJINfV8f2CaD7VsKycLKsVcPseJIcPUPnaMezexaehxWljE3E5re3cPCt6NVpzDJu5fHFxXRvvcxXjoQ2DFmGtm3egsHI1rBWDGJlDX3MzzRcfvvXHr5Ca6ec93raz96irGTvu683X3019T99miv0hZNeJXbLVv5ccPhsNVw0YRX+WEGQCO/27eGV8JWsgw0CnGRlJDNm/lpNJ3az0O+LqLqp+k52/hhRiO/2+chwKXmszvfxPEjH7HS20VdY1WYnyfxrqrVQgUm2lqtcMRK2wIw931Y/JhfSPUss4+gaOGqBbLopBGg3QqZpv6to0TZUa6uPcpVgJmPUjA32eNeX/72CWp/C3Anw5+Zwdc97gWv1J/g9qlL+A2EJcj1fM4rvEnfFOKC9FbjR7zV6Hufu9KGYe6u5zfhCCbpa3l0JNQcHnh/2GF9nsKqmpdW+9tqF8c6rAG0wgWrmYVL90T8LMGxcvVitOsQJXWv8/Tq16Ndi/hmfY4f167lnYIHeLLlML+0hlLYVKYPS8B6/o8D7nNeIkNj4iIoyxyuUcw/5oWCbKznd4T4ARGbwvc8SWBsrVKDWVXrIH8CJDxa1vC75gSKCx5lerTrIoOKWuIC5BwLZ2dp+Ii7GyPcf5n+bXJp5Hcemupt4616bhdOnsluxw3HuDL7eLPe3ZVpvDQjn2THY0jNZ3c+7DnQzLgZ+WTZ9/L0GN3P66kr1P256nP8YEjsY94Se7Zc8DA2yHK1kdzyJ1lY5NjRdSyQ63143CdQTZZuSOt7v37x9nFKnGO/rKxY6bl1zDF2zuli7/FvlnaL2362cWbPeivDwz429jF2zn5dL+PmJufaxvB5qNMK+9g2h6IFZVQvcFTUOObP7TG7PB+xzjFG08HTWM0u2i+6/S00uY4DnV6xkdIsXHUdY/v616mPVNXDwLz0eXI5QO3pURTMHW7f6jaezd496rJt1GLyFo/j77se4dL+yNXP1q06kX9Nh4MtkTuPiJFCXIB6ulHtAch9B/cB+uSyeEYui+23ghn3tSgjG6wnOO/hvk2n99sGy/saE3elnuPdaRRmpMEVQ4hKzSCLVva4BLQ0ymbYAt+cK45yp/CS1VHvBDZMnkKh9RRzDtjLSsjmzckzecnw2HoG839kH8xve752T3YNluF5nuxfbk27WbPe/mU1YylrZ2/k8bQXedrwLWcuepiFTbtZs7oaR/ArrSjhoP1Lrr7ql6wx9C3aQp2/9RgYbIGomV1LD9nDlm0yQPUG1wkQ5gnTqLh4nJKlzTiC2NyVGTxrD1ZVLx5y6aa1hTr3s9nKTj55iJIX7c3M8wupXjCNZzEEufmFVM/KwOK23/b5zSx8G57dsMdW1z7HxMUp+wQEjr3IGvv7Obf8SRYu2shQlx8riRQsepgLex9jzQHHcXN4aEa1c5+D2x5z+UEyvWIjpUP78bGEImsGBUM/5pOfPceXjgkKP1pM19qX+TLadbN+wMfWiYwzTQXCN8lBxBeFuHC7coo59g/L5eNnUmYKdZblVDLNYL38QQgzx7r5S3M3hTm5bEhotYe8BDbkpkFr7xmTLgHKPQCm5lKY0MqeI4Yw2N3In1tzKXPsk5DN99Kg6ZSx7FYeOtXK7vxh3JzQyFthfJ5yy7/HCBrZZ5x1emAL+8ZupDRvMrnU9bQwuLRK1FF1uJGC2eOYTnVkZ+Z1d9HUa6Mt2Lo3itgPsAdye2j20uMc9skgk3O5NROa3jW2ljWz8N1mqmfdxJTJ9VQ5wpFL65yVFUeaqZ51Iytodmtp86784VFkWc6x7UXDOIG3z3Fs8jRGFZngiBXIYPusDLh4nB+47HechSE81HgyvbQIc9cxtht+kNRXvU5t3sMUjC2BAz3vfZcW6LrX+bCpiFK3fcKhV0u7kaPVvdePNYNgZqB3fcwnzsB2lK5zd8GkJL4G0Q9xHOaiZQnFw25hesPh4D5PTLcwztTNxy0KgeIfhbiY9y2SwzB57q3Gespy8slLS4DGbkhIIy+hm+On3Ls3u2nrdr3dbAVMCbbFTE0mIIGyGTMpcz9Jt22ftxISMdPKn93DxZVmmsgnOQEIYw/0iJREaPpzrw/Ng580Ujo7mRHgvZvoYhsW8kjPA4JcQiR4rTx0oK/+nW5WHolgH5C7zCTMNPO+exfj25/RNKuQlEzAWwvXxU4s3MSwyT72cZM91ATmUVRsGUWF+51DzYAVJptIBprO+rucyUCTR/pQsNQdcXsf1/HXui4K8jLIxft7/MLVLuhjn2D4M7nL+KNWfDA9ym+mTsRkPcFz+yoGyVIvEg4KcTHvv2mzQkbI5bTycSuUZaRxV2MjpA3D3Frv/3Ik1m7eAvuq9LGx5llYZCYPrCU2oikzKbjnMuB16iQQI1Lcx3hKRFk+DTyEWZ/jx/uwhbnSV/nX2gUs07g68YNCXMwLQxO93aaGer43eRg3J7RCBh5a4TxJIMMElmZbN9ZbViuLMZHhqzWtuwsLuYxLBYytcakZZNHN8TDPA7lwtQuKeneJTh+bDV3HuODj2Ny0ZKCNlgi2wr3ttcUiBrtTL3ZiYRTj5wPG1rj5N9oW6vWxFEd5mhmwcDmAsWiN7VbITCLb10729eyS00zAAJye3ac6WtqhwH1oAHl8Jy8R2pt9tLDZWvF87xOcqHSnxjTH0Jf/Dr4IjauTACnExYFXmhv5YcYoppvgoLfvsO4uLKT1dJd63KeVuu5cCidPsX2A+hGmlo+fYhsD5yjzSj3Hu6dQODmf5d5a4xznyTfuk8ZL+bYxeOFejLj+WB2WoiKXCQrMWEppFlzY62PGXd69lBclYjn2egS7LxJYP3kKhQndHiadxGB36pFmzs0fRdGsQla8fbxnYoN9TJrXyQKTc7l/ggnLyWN+j4cDqHrxHN/fUsjcDbk0em2Na+aPJ61UTJjG9vmGKyvML2Q7x12vtHCxEwsZhvF0A4NtaEAR5eVHnBN1csvvpSCxi9oq72Pd/NknWDHZnXqxk26Gc0MmcA7nzNQE4O+RPrfpFsaZoNmq8CX9RyEuQO5La5Azhd05ENEuxpa/Uc9cinN/DN4ut9XdyN2nEtmd76gPHn7pdrOyvtW23Ei9t1/ACb2XKTngVsaRj9gweUqvcXE9rUK24LF8/EyXfSwNHzEnEsux1L3O06ubeWjdHNaum2Pf2EXtK48Zll+wtWaQZdzH8zIk4XY9ssWHmW0JjhUry5i7pYy59q0us0KxcrkDyCykekvPkcFduqqZhUuPs31Lodu4ONdlRqpePETV/EKqZ5VRPcu+y8XjlGxwK+5IPT/ITKJ61rSeug2E7toDW1hz8V4eX/Qwa52zpd2Wvqlrph0YMXsja2d72WegO/cyTUefYuzc50mZC3CJ+p8d4BvPzDDsZLsCQ4phy/DFzzMcoOkAtVveAexLmhibySfdT8Gk++1lPof7CoOLcm1j2v5L3aDSloGjYAAAIABJREFUj4aMzS++npKayucdHVy7di3a9XGKxTpFVfpa3ilIo+ZwRWgL/jrXgvMQOOP50l0Rklv+JAvz6sKyhtY/Af8bjkrFqfKHp1GR82n8Byo3d2VPYXHGZd9dgwnZvDl5GHUx+Lc1vWIjpQRyTWHpJVyfz0zlyalLGHc5vNdilYFLV2yIF44Vwadu48lgZ6s6r1E6QCYlhF0JD626l1zD7dKiRA+zAoMzuAJcBts35FJuuP39CSYsDc0DKsDFnbx7ebyixOX2d7PgwicKcEEzPcpvwnZFncNctIBp5PdZFI66yYCn7tQ48srJBcCr/NBXt6oHxgHIusi8L9W8dHgpa9dtdG6xHHNdLFj81czCI4VUbylzdpFaTh5yXedN+l/d61QVPdnvQwoGskW5E+F8+FrOXjm5lUzzEn5Y+io/pJHf7Rt418uW8FF3qoiIiEgcUneqiIiISBxSiBMRERGJQwpxIiIiInFIIS4AKampfOUrmgsiIiIi0acQJyIiIhKHFOJERERE4pBCnIiIiEgcUoiTQSKP8lUbWWtcrb5PJTy0biNr1z1JeV7EKiYiIhIUhThxk8CGyTPZPT4t2hURERERHzTVUsSral5arWtKiohIbFJLnIiIiEgcUkvcAHBX9hQWZ1zm5SPdlM3IJ8u+3dLwEXc3dvfsmJDNm5NzMTtud9fz8pFG3vJ0X0I+u2f0HNp0aj8PXenZr81xG4A0XpqRT7LhfP7Uafn4mZRxijnNGezOd3TfdnP8yEesNFTbP3mUr3qYgsSeLZ4u7G252khu+ZMsLHLs2Mi+1Vs4aL/leh8e9xEREYkFCnEDRUIui2fYwtacK0BqPrvzJ7Ch1R6IUvPZnW/i+JH9zoC0fPxMFk8GjjTyVncjdx9oxDYmbgqF1lPMOd0a2ToBpOWz21TPywdO8Zbj3PnZ3OUIl34p4aF1cxjRtJs16+3dnzOWsnb2Rh5Pe5Gnq+qce5qLHmZh027WrK7GEfxKK0o4uM12XH3VL1lT1VOyLdSF9jSIiIhEgrpTB4xujh8xtI51d2EhgeQEgAQ25KZhaTjp0sK1qaEeS8Iwbk6IRp0c2wytgXTzl+ZuSEh0ttz5I7f8e4ygkX3bDOPXDmxhXxOY8yaTa9y5aTdrnPvVUXW4EbLGMT3gxyYiIhJdaokbMKw0G7sgnS1rACaSE8CcM4XdOb2PTE4AAu6+DLVO4TMiJRGa/tyru/PgJ42Uzk5mBFDv7eCLbVjIIz0PqPO2k4iISOxRiBtEeo2RE8hM7hkHKCIiEkfUnTooWGnrBrPZFO2KRMSFq10eu0Snj82GrjYu+Dg2Ny0ZaKNFrXAiIhJnFOIGhW5W1rdCWj5vZvc1AK6bZiuQlsFyj3d30wYkmxzl2GamBjKGLdzqj9VhIZtS49UYZiylNAsuHH7de1dq3r2UFyViObZbM09FRCTuqDt1sLhyijmn8tmd7zYuzmVigc2m0x+RMXkKZTNmUmbf5lxihFYeOtVqKMe2JEhb/hSidmWqutd5enUzD62bw9p1c+wbu6h95TF6JqbW0dIOZBn38bwMiYiISDwYMja/+HpKaiqfd3Rw7dq1aNfHSXWSWJBb/iQL8+rYvt5Hi56IiEgUqDtVxKmEh1bda1iSpITSokQsdUcU4EREJOaoO1XEqZqXDi9l7bqNzi2WY66LBYuIiMQKhTgRowNbWKMxciIiEgfUnSoiIiIShxTiREREROKQulMDcPXKlb53EhEREekHaokTERERiUMKcSIiIiJxSCFOREREJA5pTFyg0tfyTkE2APW1C1jWEuX6iIiIyKCklrhAtazhzn0LuLO2kdyCbTxpinaFREREZDBSiAtWyx+psSYwLn1qtGsiIiIig5BCnIiIiEgcUogTERERiUMKcSIiIiJxSCEuaIc5eLkb08jvsyjaVREREZFBRyEuBAcbKrjzcAe3l77KO1MfZXq0KyQiIiKDhtaJC8GiCa/yQ/MJntu3gIPRroyIiIgMKmqJC9pUMs1gvfyBApyIiIj0O4U4ERERkTikECciIiIShxTiREREROKQQlywTLcwzgTN1sPRromIiIgMQpqdGqj0tbxTkA2A9fxWlrVEuT4iIiIyKCnEBaplDXfui3YlREREZLBTd6qIiIhIHFKIExEREYlDCnEiIiIicUghTkRERCQOKcTFmOklc2OqnGiV78/5+rsOIiIisUSzU2PMwepdTC+Zy8HqXWEvx59y+9rHGJx87RtIwAr1sYqIiAxGCnFR5Cvo+LrPU+gJR/BzlG0sy70egZzDn30DCXv+tMYpEIqIyGChEBcGqRPmMp6jHDzZ7HWfhJxbuTnjU/7y4Xm6DdsDDR3RaOGKdjDyFlDDFVz7XwbjSyaR6rzdzOnqo1yJYo1ERCT+KMSFKmEkOekWGg57D3CQQU6umSu1PQEumADi65i+umEDOV+4g5Gn4Bmf4Stcmjltf/wJObdyc673PVMnzGW86Wyv8C8iIqIQF6KEjJtIsH7KFV/fsGnDSaWZ0609m4IJMdEKPoF27fa1XyhdqL5uD+5gKCIig41CXEh6t7D1ZiZrZAbd9e977C4LZ/doKJMifI0tC8fkhXDy1rUqIiIymCjEhcJDC1svCRlkmCw0N1s83t0fY738Ka+vlrJgZrqGynGOvlrjfLONP6N2Fw3mW7k512zf3nscWuqEuYxP77l9pXZXr9fW1v1pNmyx0HD4fZq6DWW4dX/ajrEGMO7NfczcaG4uGe281V3/Pn9p8Px+EhGRwUMhLmi2FjZafH8xp44cTYL1rO/u1jAK1xIlvsrtzwDnrS6e9vcltWAuqdaz/KX6PN2YyfrurYyfkGGfjGK7nWM9ysFq+9jGhJHcPHUu441BLm0SN+dCw+FdztAWGT1j5jQmTkREvFGIC5a9ha2h1veEhox0+uhuDX+rVqQCV38FOMe5vAmq67TFOHvYQrcVMJlJoJnutNHkmJo5/aHhtew+T0PLaMYPy4BW2/YEswmw0q00JSIiMUAhLkj+tLAl5Izuu7vVi1BndEYicIUSDMM5Zi2Ylrhui9Xl9pWTuzho/7ctnJkZ76kMqz3oAd0NZ7mSO8m+n2s3qoiISH9TiAuKPy1sZlIzzHTXHwtq/a9Qw1c4WuLcF/11/DvQcvtjyZLQ+bNWm6Ob0979OnUuOXgeOyciIhJpCnHBCMOEhkgKJXD1VZ5Df3atugv37FRbK52JhATwb+CZhaYPd9HkCHOGLlcREZH+ohAXMN9LhjikjhxNQsvRPrvbwj12LdTA5ak+gUwwcC8rLrSepcF6KzlTJ9Ed0JUTTCSaoLu5p6u222KB9G/gyIM9s1mt3grxyVbeTaQmnFfXrYiIuBgyNr/4ekpqKp93dHDt2rVo18cpFusE2Gct3kSzz/FQ/z97dx4d1XXg+/4rGzCoqhg0hghJlqgYCFgCB5vgPIMIiECvvNz0BfJi2qsDdMzQj6x27Efw0PiuZ73g2Fp2fFf7Bg9pSHrl4qyAb+e6BzBDALtjLNthUEzjQUiWhGxLAiFQlcAgm/dHDTp16tRcpaqC32ctLahT5+yzazhVv9p7n30Gp7UI11pnNW1HNMK1REVzQkC0V3VItD6xhMZI68QisDzPa5EbcVoOb6uaLXCpsavUPAUJWE33YSqn6wiHPi1hbhWD3bW5E7l99i3kWtTCavoQ8341xYiIiIBCXMyimfIhmnnBktnyBrGNO4tnm3TK3mukioiIpI5CXEyiaWHztMQUd6q1RERERFJHIU5EREQkC92Q7gqIiIiISOwU4kRERESykEKciIiISBZSiBMRERHJQgpxIiIiIllIIS4LRZr8NtrJcZNxRQWrMpJdbrzlJXu7eMpLtKxUXvUi1VfUSNb7INJfovVJRhnpkGn1DrePWPefzGNQYpfI86zjbGjpsltZINxkt6mcCHcoJtm9FifyDfWYkvFYI31IRLpiR6L3x7vvRCRSp1S+FuH2n0nvaV8dU13XaC7vdy0e76LjDIbuODNTiMsCybq2aqjrtBqXm/ebasm8bmwyJKMu4Z7jZAgX6GOtVyz1891vXDeVjzMZkvlahNrOvCzTWhESCcHR7iPU7Xiu4xzpPZpp77FrTTzPs46z1B9noSjEJUHBrYuZyhEO/bkz5Dq5FXdxe/HHYS/XFatwX6bhGAObebtYL99l3L/5vnjLDPf/cNeNjVSeUbhywoXZaIOu1ZdXpLoNVWiOZXkmSPQDMFNfC7D+7EjWL/lILQPm9eJ9zEPxXBk/a7IzyHmu9lPgv90Z9rKM6ZLI86zjLLXHWSgKcYnKnUhFkYuWw6EDHBRTUWnnTGP8AS6aXyaxlpeq1qFYy7UKkbEE1GR2NYf6tWdVltVBG2lZtL9YwwXYZI0vCndfpnxBXr16ldf+sDvk/bE+tnheC/PypB03IT47YvmBEerHUrjWlGjfy6kSbStcuMeQfUGukxPeunqurR16zWiuz50K8T7POs7Se5wpxCUot/jL5Lo/5ky4o62whAI6w1xvNbxoDpJ4y4r310GoN2M6P1jj7aZJplBfQPEG21AfrD6xdIOat4mlbuE+1FL1CzNRyXotIv3SjveDOarPDpNoX/tk/rCJhtVzYGzxD7eO+X7j+ynSY8zU9162ieZ5jvRe03E2aCi/BxXiEhJNC5udsonF9De/HnfTeTQJP56yov2lkMgXfLh9x7KPaKTq13k8H0aZ2nIQb91CvW9S+ZhycnLIyclJ6NdrMl6LSMdMfL+2w392JPM5jvb4TJTV8R1Nq1qk7cPVN93H07UgmlakSK+djrOhO87MFOISEU0LW24xxTYXnZ2uIatWNEJ1E0bzhjZ+IBu3ibSdUbhf4Obl5v/Hc6AlI/hG22IVzS/aRIJhpA+LeH4dxtIiF23YS9RV4LU/7Obq1atxbZ/s1yKpgTXCZ0csXTThhAtWmSrUZ1L0POPPaNxFi/0ubq+0e5cHj0MruHUxU4sGb59p3BX0mni6P+2GJS5aDr9OW7+hDFP3p2cbdwzj3sxj5m7h9vm3+G/1N7/O2y2e75BEwkEi74d4PvN1nKWeQlzcPC1sdIU/SAsm3kKu+4OYmnJTLZFm71h/jcUintYeqw+0UOEvmrAT6Vd/vC1WofYZT3CKNTSH+lBJVWthsn7RGsNbTk6O/3ZOTk7IbWN5nmJ5LZLb4hjdZ4fV6xHvDwDftr7b8fzwGgrJrEtB1WIK3B/w9v5T9GOn7Ot3MfXWYu/gds/tCvcRDu33jpXKncjtsxcz1RjkCm/j9kpoObzLH9pSY3DMXKQxccl6fuIpx2obHWce6TrOFOLi5W1ha2kMf0JDcREJndCQ7PEByQxaVvWJpzs2EdGEu3h/UZnLiUa4VrJ4PhBi3c5KrF0g4eoUTfBLNAwatzOGN3JymDPvW1G3ziX7tQi1fczHYlSfHYkL12oSb4twNPtLdHvz8xx3d2qX8WxEF/1uwGYnl076C2+hwtbJiTcNr0H/KVq6bmHql4qh27M8124D3PRn0I/wTKPjbGiPMzOFuDhF08KWW3FLQic0QOjWonjDRqRfUvGKpaUskmS05KTqAIpUTrhfYeb1InVDWG1nVV64D81Iz3+0X5CJdC8kYs43Fw2WFWO3ajJfi2heq1Dlm0XbOh/q/RtL95e5TqlqGQjXah7tfsI9z7G2mgP0u9wBt8/8eReHvP/3hDM7U63KcHuDHtDf8gFnKm/zrhfYjSoeOs6G7jizohAXl2ha2OwUFNvpbz6a1LmAMqnrwywTummibS0a6jqkQjQfapFa4WL5gg21j1j3nYicnBzumvetgNvh9pWs1yJ5jyX21vl437+RWjSSeVwk69gf2s+LaOZq83VzertfZy+mAuuxc9czHWeDZZiXqyUuE2XgCQ2Z8IGZjNavRLbz1SFc3cKtk0zGxxGudSLdQTfWOkTbMpwsV69ehZycgFa4cPPGWUnma5HweyjK6YaS8ZyGCvnmYyFZLd/mfUcqN9LYKKvHkCyeVjobubkQ3be8i7Y3d9HmC3OGLlfx0HE2WKZv+VAEOYW4mEU3ZUjBxFvI7TqS1Kb3ZLwJ4h5fEqVY36zmAzvarhTj9pHWMZcTbptEx/VEu594JOv1T3dLZbR8dZrzzUW8duDVuMpIxmsR7xifYNF9doR6jeIV7Q+cePeRrHKT9zxHofsDWtx3UTH7NvpjunKCDYcN+jsHu2r7XS4oGoMvDw6ezeoOVUhYnvK+TEHuqazputVxlvrjLBSFuFhF1cLma8pN3i+1aH+9hFsnmjCUDLH82jK3CEVbvtX/Y6lftPeZ6xTtr8lwv8CiaQmL5ddqNBJtqUzW2LpoGR//a3/YzZxvLuL1A6/GNd1Ioq9FqO2s/m+1T78oW+cTPc7NdYqmmzPRlupYx72Fuy9VP64CuWh783X4+l1B4+KMXaXmKUggcLoPgP6Wo7QUG8rpOsKhxhLmVhk2yp3I7bNvIde/YHA8XnB5r3PCvpip3q5bq3UykY6z1B9nVnImT5t5Nb+ggPO9vQwMDCSl0GTIxDpBdJdEiX2OoPDiadlKtPxEQ2MmtOykqg7xdANFCn+RXoNoxhyFWmZVn3CGsts51P6t9j3nm4v8/w815YjVF0AyXotkSObllBKp41AdF8naz1C/ThL7dw7oOEvmtrFQiIvJ4CSSofvaPWMmijsz/5eTSFYzjpUzjZvLPNF8dohIYq6/40whTkRERCQL3ZDuCoiIiIhI7BTiRERERLKQQpyIiIhIFlKIExEREclCCnEiIiIiWUghTkRERCQLKcSJiIiIZCGFOBEREZEspGunxmjE93/K5NtG+W/3H/kNTb89ksYaZabKZY+ycobDf9t19Hme2NGUxhrJIBvz6u+k2g7t+/fy8s501yeNbA/w0uyvcPLwWh6L5XrlzuVsXDWDc3s28MLB2Lax08q+h5/lkOGuVbf+E7WuLdzdcjiGSlgp5IWaaZQB0M2rB9/l53GXdTfPLFhMpf92K7/ft4mtxlVsD/DS7Gpsvtvu4zx1+KmAx5Y+s3l09jpm2giq16pb/4nvFoPlYxLJIgpxMbr820do/C3Adyh5soZRkTYI6zbyN91DybmDND77SlLqlymadzzGph0A81m9eRHjQq0Yz5fhEBi15J+ZPt0OrmMce2IDF9NdoQw19ZFaaicAp4/zzE+70l2dGN3NM7Or4dSW2AJcCmxtPk7t7HW8BAkGuW5WHzwAwI+nzuNbNfOY8u4BVidwEefmxr/mvlAvrfsp7t7n+e/ciud44Evx7yfZVt26jpkc56l9waFy65//mq1/9oa52Q9wKmOCp0hs1J0qEmQpeU47PceOcdHuJG9iuuuTbG4ObNjLM+sSbYUrYvIEN8cbu2DCeKYmq3pDYhYPzaqlsnNXElq/otS0nSce3sAmUysc4AlDja3YJv6AR21WG8fu5ycO8Go3lE2bxo+TU2QWuZuqYmg+FT6cbW0+jtv2FeYm6TkXGWoKcSJmE2dRaHfhOtZAt8tO4fSl6a5RZlo6nlLcdG35hHaKmJxFT9NdN/81d9g/5l9O7Eh3VQZ1beL3nbnMrHqAuUkqss3VD9gozk1SgSKSUdSdmipfuRfnvVPwf3b2neS9uhe5bHWfo4aqJ2v8m57ddT8dB6LfVeWyR1npbGLb450s2LyIUu/yoHFo/jE5vjodZdvj22kOKM3T/VlqXNS2m03P7Q8oI7D709tlGsO4N/OYOfvCeuoW+m4FjxkaSqOmOxnlaqLn1E5o+ivKnLMYxU5Dl+r9TKpbDHtraSv0drsC0Mb7m/6GHgCWUrJxDYVNz3OsezGza8u867ho+9Vf0nHKsL8lxjII7MKd84/Mri2jZ28t779mrKWnDqOOPc+xqJvTBsfCebg5/qs3ONAQaT3A1cT2DS0Ye9WmTiqC08c5QRechtpJRWBcY2k1982HveuaKDKWF9D1WsSSLdWwfy+vF97J8ipfk0gXe9cd50SYOp1vfINtWzz9oEXr7mR5FcGPZ1YFK3/g5MIfjK2OX2ful+xcbHmJbVc/D/FcmY+DPhq3Pkbg27uPc6edLHtoDVW+t7LxWAHmrq1nQRmBLI87D0+3ajV/WQSHktA7XWbPBbrp7E+8rKGwpHwW91bk4mppYGlrZlT6lr96mB/NdHDhnV/yyP88FXkDkSGkEJcK8x6ganEeHS/eT9OHnkX29U8zedO9niD34Ys0/QSSOibOMYOVm6F9zwY2HQRq1lO3cDnLjnq/eGrWU7cwj8atG/xfRHPX1rPyIQxfKE6WPbSIUtMXUSr4x8xl3Jg4T1fqxaYGT4g61sTF6Z4u1Q7T53de7V7yXMc4tmkDF72hbdLq+zn8wtP+dUZNX8Ns2nh/Uy09QN7qvUxaWk+PIaRN4n9yeJMvYXjC2XRfOa/tom32Gsom3w+vDZbLnKnk0cb7MfWHerpRD4A3YFn3IU195E6qaWL7usDQFqiIyROgfb9njRPvd1E7fzxT6TIEL896tVuKON/4Bs9scXtC1YpqliwN7MotnV/Lcpdvn57AVvtIESe8YW/qI9Wwcy/P+ALa0mrum3+nv5yuLU20b6nm5tts0DA4wK3otvGMcTfxb8anyXYnk23Q6foPvrhq8dC870mOPs8m78FSuexRVq6qZ1zA+9RB1ao1g8ecczkbVy1idc1+/zqHntsQ8GNk7tp6FoQcIAq43+Cku5opttlAnN28ueXsvKPS+2Otn2NvJXJyg4hkMnWnJt1t5P8fJfQfeZmzHw4udb16kn7HzTi+kqr99tG41fAFc7oHFw7GTQBwsmx2Oa6j2wNaEg7tO4rL4eRrTt+ScsY5wHW2NVWVTI2CaeyumWf9d0c5S2Ipy9uV2n3M+61/6hMuEqJLtX0Xh/0nPezk4jlg3PjAk11cxzjmb52Di2ddYM8bXOe1vzG1pD1Nd7uxnJ30NLmg9C5K/GPzllIyuwzaT/jLTR4bRWOBXneYAIe3K7WL93xVb7/A+RBdqu379/pbzGhwcwEYXWgKkKeP84y/pc9NVy8w1kaR9+4TPzW1sO38hPaAcrp47zSMqXIaxuYVcVeVjfPNXYGPxTYWR04bjV3whcVDm7tgBva+o+wwHCzNO7bT2Aelk+cHPjZjqGvazpttwevE5jCnXWD70p0Jdqn2c+ytAyw62MCDmdGgFZWXWxtYdPBA4q1wRV+lklYaI7Vmut/gpDuXmZV3h1zlg/+5mR/9+CG1wklGUktc0k1gpANyb7uHqtvuCbr34gTgw+CtEtdDl7Grp2k7Tzy83XvDE87sM9ZQNyN4y3ETgCaA/ew7+g1W+tYbgha5pDjzLouS1Io3arqTUfRw0f95/TTd7YuZFNSlChfPtgVs2/NCbXDbyblPArd5+S85/LJxBU8LXpndtJ3LuM3r9ExfTOH0pXSc2ukPmm07nyb53Bxo6KJ6fjX3bcGyGxW8XamuJrp9Cxq6+Gipk2pzlypuetqNW3bx8rq9QXs93xN4euiJn+4NbNGbVcHKFU7GmLczbrOviTtWOJm8FE7sxB80924JLHuurYicwZqbTKRoHLia3jJ1dzbxp6Y+qpzFVIJlVyhA+9k+iLCOpFBRHa9UlUPnLr6z76UoNjjMY4cPM7fiOV5ZsBj3qWRM8yIydBTiUiQT54+LZq42fzdnzXrqFi6ibvOisGN4ri2erlSwM6nOHDSsu1QT3Z8nwBnH0nm7XAO63AKDJNOdjGp/Pcl1Mdh5nGd24g9Oy7c4CRyj5ulKBd99BnarLtUE+QKcxVi60cb1TEFy6iRPN665Lofc3TwA5CSzjl6l+Y7IK0XD9bGmvIhH1ya+sw9PmFvwHO9EnP/PMxde8aktfGefwptkH4W4pDvNpT7IL5gAZEqIa+VcH5Tml+Ntcovs4LOGsXWeLtfmTJ2rt2Aau6cVWt/X38yLb7XysvW9gSbOotBOyJMI/C1hSVOG3Q4Xj+2K2C3as/8YF1c4yZu4FJykqBXOpKGFbQ0t/hAV2MJlcVKEeb1kKR3NGNwc3xexb8zbiuiZ7mTyhC7e+qnFN7i7FzfV3FoEOV0QOCyumc6zn1PlvINKmgw/XJx8zemAc51hfsw4KRpHhHUimc0EO7g//SjuEuhvZenBLBsSkWxd/0kzi8mzAeFCnO3LFNPPyS4FOMlOGhOXdEc4+x8dUFaD8/u3RVz3s3NA2Vcw96YlVxM7DrdC2SI2LnNGXt2gsjCPgK7apk7OAeMKfeVYnM0aU9U85SU0jujMuyw6eMD6L9oAB1CSxyja6H7NfEcbLheMcs5KcHLnEOXmD56+mLd6L5OsnsxTnulOylasoYwmekK1wjmXs3FzPXWbHyXGlzo0b4jydYsWFdrA9QknzGe1ese7lU4qMpeQmPYLnMdGnv958bTCWb7ndnqmO6ndUk3p6U+sWwTdb3DSDZXFVuOgrvL6B+1ctU9nmeEJrFy2nCpHH437Qg8viGadiGx3MsUGne4EQoV3jOjO8uybV2RJ+ayMq/stf/Uw//Dzx/mH++aluyoiQdQSFyP7+qepNE4Z4B/71kHzT57yDGU68BSNPEDVYtO4OOM0I16uZ39Dx6Z7qHxysGUl1ilGonLwWTaxnrqFpnFxxq5S8xQkQPB0H/t5Yc8UQzl9NG59nnPL1hguz2MxtYJ/PJ5FeVuL2bjK23Vruc+hkTe5DFzHLK7OsJOepr+iLMRZqvHbScfOWRSuWMzsusWeRe27OHbsLqYHBbCddBxeTFltGT2Hw1xBYkJemB8EweGnekUt1SswTPthFZCMrW42plbaQpz44Dm5oHRCkrtUG1r4t9vGs3x+Lfd5s377/jc4PutObraow+uNbs90IyFb7g5z6NMf8LXKOfy97bfUuQPb4q4e+gX/reNuNqxYTd0MX6er6T3p+/GR5KlxVlVWY3Mf558TmF5kiU0z1ybTB53nAAeUT+ZbHODVdFdIxCDNOfnKAAAgAElEQVRn8rSZV/MLCjjf28vAwEC66+OXiXUSSas5/8jsWgLGz0mwonV3srzyE8sTMgZ5rqv5Ndcuvvvn33LV1KlKTg45OTnkAF98YXUOa3zmrq1nASFOGCqq45WqwijGcQ0Vz3gxwl12y8Bz2a0PM+TaqVHWPapr507kB//vD5k5uo1//fEWhTjJKOpOFckGE+uZXltGz14FuLCWVnta4XaGC3AAh3ms8Tj9xYv5/a3fDz7J4epVrn7xRWIBzrmcjWvnB9z+ehm0v2cR4GwP8FJVOe5Tv86QAJftPqLHDZUTw1/9Ym7RV7DRzelwz/mChcwcDRfe2aMAJxlHLXEiGcx4NYfgEy7EZ+ojtdROgNBXoQjB2xLzn4fXUpeC8GS+Mkl7iEmtV936T9S6Mm16C09r1uAwiVZ+v28TW42r2B7gpdnV+Dtw3cczpCUOAupvqteqW/+J7xYD9Idu+Zz0f/HTtdMZDbT820M8vW+Iqi0SA4U4ERERkSyk7lQRERGRLKQQJyIiIpKFFOJEREREspBCnIiIiEgWUojLAHPnLw57n/EvXdK5b6NE6pGsxxCqnEx5jkRE5PqgKzZkkFAh4ND+XUNaB6v9Hdq/K+R9ocqJVTRlx1oPK9HWLdHnPVI9o6nHUL72IiKSXRTi0sz8RW/+0o70RR8u+EXaNpqwZi7DfDtcyMjUAGL1HCcrFPr+H215iYY8ERG5finEJUHBrYuZyhEO/bkz5Dq5FXdxe/HHvP3mKfq9yxINDxAYAqIJhPHsL9Q28YSMaOsQb3gF6/qGC6ZWy2J5nozlWv1fREQkFRTiEpU7kYoiFy2HQwc4KKai0s6ZRusAl8qAEY9MCB+RglgyyzeXG81rEK7FTQFORESGgkJcgnKLv0yu+2PO9IdZqbCEAjo50T24KNSXfLK7+pJRTrZ36yWj/qFCX6hwZ1weyzhChT8REYmWQlxCglvYgtkpm1hMf/PrnLG41+qLO9w4tFR9yYdr7Uv2SQRWy4Y6vEQa6xetcC16IiIiqaQQlwiLFrYgucUU21x0drqC7opnXJeVSAPrzfeHOqEh1H5irWe4+6MJreHEegavb3/hQmo03anhyrYqQ0REJNUU4uLmaWGj64hlC5tPwcRbyHV/ENTdGipcxCNckDDvJ94pOozbJbPusYol3IZaPxmsulQzYYoYERG5fijExcvbwtbSGP6EhuIiLLtbI32xJyMgJTrnW7LDWia1VsXbnWpu6VRrnIiIpItCXJxCtbAZ5VbcErm7NYRYW5ys1k1moDC3NmXzyQ5Wc+FFG6qNoTaZAU4BUEREYqUQF5fQLWyD7BQU2+lvPhq2uzWURENSrGPVrPZvPrkhke7UTAs5sXYrRxpHCLGfsBFpehKFOhERCUchLh4JntBgJdJEvb51oikn1PaxyMYrMcQqGZfwMpZlFs8JEsmsk4iIXNsU4mIWfsoQn4KJt5DbdYS2cPPHJcFQTD9iVX64gGJ1tmcmtcKZy01naLLad7rrJCIi2eGGdFcg60TVwubtbv003EkPg0KdVWr+s5LsrjerrtJQXYnRXj4rXCtVpLCS6PbRlOt7vJFazmJpCY3lxBEr6Tr7V0REsoda4mKUihMaohlvBamfwsIq2EQj3NUMIoWUeAJctNuHKtNcZ+PtcOE1mn3GeuZvOGqRExGRcHImT5t5Nb+ggPO9vQwMDKS7Pn6ZWCcoZur826BxV5iAZqfs63dR3Pk6b7dENx5OREREJFYKcSIiIiJZSGPiRERERLKQQpyIiIhIFlKIExEREclCOjtVRGKy4p6lUa33q9/sTHFNRESubwpxIhKzX/7upbD3//B7dw9RTURErl/qThURERHJQgpxIiIiIllI3akJWFI+i3srcgcXdL/Lomgv05BKRXW8UgW/37eJrb5l8x6ganHJ4DptB2l89pV01M6vctmjrJzRw76Hn+VQWmtioWAau6cVQn8zL77VystprMrctfUsGHeUbY9vpzmWbcrAdfR5ntjRNHiH7QFemj2Wvcb3RqJyf8LvZs7ADrg+epbvtf0xWSWLiEgYCnHxKpjGvRVw7K0DPJjii9zHxPYAL1WV09z414Ff0geeovEAwG3kb7qHEuuto2Zf/zSV407yXt2LXE6wLBlC7qfY2/lPfHdBHSQlyN3DP8ycAR89y18ovImIDCmFuDj9uLgQut/NrADH3TwzuxpObeG+rnTXJcudeZdFB9Ndifgdem5DyNbNrX/ewgT7Or57691s/XP4ExQiKpjKRD7ifynAiYgMOY2Ji0suxbZ01yHYqlsXU+k+znMth9NdFcloh3ms8Tju4sU8U5TuuoiISLzUEpcqvjFVPkFjqwp5oWYavHuAV23GsXXdvHrwXX4e8w7vpqoYmhufSnB8mbe71eG7fZGOFx/h7IcA36HkyRry/etOYfKTT/tv9R/5DU2/PZLAvuezevMiSjGP5XKy7KE1VPnr1Efj1sfw3O29j+AxY3GNuTO/blbjHAumsXsavHqwkyk10yjzLna1NLC0NfamWU89HYML2naz6bn9gSud66S5Zj11C8u9C4zPAeBczsZVnnFpRu17NvCCVYuir1t14gPM7Ur0PSMiIumgEBeDoBMZcqexu8Z3o59jbzXwYL9vPeN4uVx+dscs7q1xUGYKaGXT5nFvfzMvHmzlZe9635payM9jPUGi6KtU0s877kQeoSekjTryGxp9YWzeA1Td+1N48RHOfvgKHT95hQ5SMSbOG+D6zGHMs3zc0efZ5EssNeupW/UobH2MHU1N7DjcStVCJ19zQrN/DL+TrzkduI5ujy2g+LtRPa/F9JArFvKtGhvH3jrAav9rfis/626IqYvdcwJCK/sefsxbT8/jrXuoOPB5KFtE3bijbHv4WZp92y1bzp986zRt54mHtw8W7A114WztbOW7xWOZCApxIiJZSN2pMXi5tYFFBw+w6GADx/rxtNIcPOBf5vnyLuRbFbm4Wv5s+DLv58F3m3FRyJQCU6Hd77LI30LXT6cbsOWyJMa6zbUVgvtDDiUQ4kZ8fxb5fSdpM7amHThAR98oxn3ttvgLjsS5nI2bF1HatptNQa1p36C07yg7jGdYHtxNY5+DyhlO7+2TtOOgasH8wXVqFlHl6KP5qGG7pBoM7QAvd3+Ki1zycsNvFcC5nK+XQfseY0vhfl7Y0woOTyj1M4XbQ/uO4jKvEyt3L27KqUqgS/WHhTdD9wl+mUA1REQkPmqJS7bcXPLop6nb1BzT301TfyVOWy6cGbzP5QpMXT8/cSCOrlSYaI8lPVgbUTAKHIFdpH4FE4BEukpDKWfBqnJPSDF3IQKl+Q5wzGDlZotWpfxyoAnYz76j32DljCnMZT+HgLmTy6FtNztSleGSYUIedlp509zdefAk7QsXMW4CnodnpamTc8wIv04K/XDKS/zXQjj1n3fzF2eGfv8iIqIQd8045eonaEBUPPqGetqQVvZt7eHrq2awcm1n8FgwCGqFstJ8tAnXjBlMqoFDB+czqayPxq0WZV0rnMWMA84lXFA/PXG03v7y5N388qQnzP37zUd58p0nyeKTeUVEspK6U5Otv58ecnEWmlrGcgtx5kKPOzVzkhxyd4PtK8xN4KzZy2cugmM0I5JXreg0beeJPa1QtoiNywL7B9vP9oEjj9IoynizDUonz4eaKZS2/TGzW+EATvfgopxJNablNVMopY9zp8NsOyEPe6R1IrGNxUY3pxPogv9l90eQO45EenVFRCQ+CnFJ183JbrBX3MrP/Dkul59Nq8Te38yrqep66vpPmsllStHsuIu4/NsGzlJC5aZ7IwY5T+C7GcdX4t5doIPPsu1oH/YZawKCXPOOP9JOOQseWk5lhCIOvecJgnULy2l/Lwta4ZreorkPSheuZ65/4XxWLyyHsCE0mnUiW1VcDu5eTsVfhIiIpJG6U1Pg5ycO0FY+i3vvmMdu38KUX5LrJRo7F/PdiX/BqpbDQTPxj/j+T5l826jBBY4aqp6sIXAKkVfo+AnwZI1pXJxxHY/Lv32E5oKnqbz3af/VHxKdYqR5x2Psy69nwYw11OX7ptnYzwsPw+rNi0zj4kxTbIDnhIfZnulG9sXZtxf6DOTAExmSo4kdj2+ga209CzbXs8C71GU8Exdva2RZ4LhA8zoxsz1AbVKmpBERkXTJmTxt5tX8ggLO9/YyMDCQ7vr4ZWKdMt/dPLNgMcWntnD3dTnhr2fOuMom0/VCr0fO5Wxc5aTZHHQBmM2js9cx07WL78RxxYYV9yzll7/zblfwOP/+Vfhfrz0UcIbqD793N7/6zc54ay8iIlFQd+o15SXua2zFNnEdL1XE362areau9bTC7bgOA9zctY9iHE44d8EM7H1N/MniqVh16zpm2lr5faKX3ALoP4eLm1lY9o3EyxIRkZioO/Va07WJ7zTW8UqVdbfqtWfwKg/RnMV6rTr03B9ZvbmeOt+CUM+F7QFqi1v5/b5NyXlv9D/J9/7zcf79q+v595vX4/roWb6n66iKiAwJdaeKSEwCulNDUHeqiEjqqTtVREREJAspxImIiIhkIY2JE5GY/fB7d6e7CiIi1z2FuBjcXDaBjz/t4vLlobsolUim0Vg3EZHMoO5UERERkSykECciIiKShRTiRERERLKQxsRJSlQue5SVMxz+266jiV0Ka2Dp2/SVD94etfd2Rjb6bnkm/B2X4D5iUvwLXPfczhXf7fNvM+aXf5tZv4pmVbByhZML+/fycsYOYytiyZZqz2TNAHSxd91xTqSxRsHu4fIP/47Lzf8d+x9+E8N2nsvAVZ3zXQc4Gr7Jqy2uDQzU1b/D0psHb5/615l8+9eB2w7pcTCnh4YfNTPad7uvkidX5bHNuE7xL3DdU8DIp76nLxyRJNMxJSnRvOMxNu0A/xdLqBWdy9m4agbn9mzghUgXrW/934zb+f8ltZ5x6/xb7E95/vvFN//A+cr0VieTTX2kltoJg7fPN77Bti1u760uXl63F4CidXeyvGro6xfJwNK/w83bjIkpwKXQR5OZssGe7lp4vJbHrNfyAFi58RQ/mWSxTuffMrL1bfoe+B0OBTmRpNLxJCIp4m1lczWxfV0LXb6l6+5kydI3Mrh1cNAX3/wDfeUtOJ4aqlbW/bzwcLStdtlj2M7/ju2Hf0ff0r/PnB9iIteAjOr9EZFrx9RHqimli70bBgMcQNeW7AhwFP+C/hkORu1V61HifsOIf3mb4eX/hUsZ2Noqkq302XQNqFz2KCudTWx7vJMFvovBYzEOzdt16e+IsbxIuuGC8j5thjE9lt2fsY/FMY+Zsy+sp26h71Yr+x5+lkNRlRSpfFNZNeupW2gYXGd8bN772oO6dtMw1iguNubV30m1qaftQth13Bz/1RscaAjcxtwF2h4wrs5Txs3Nb/BvVLO8yuZdbhzPVsTkCXC+sSlJ49uCH1vsdfLyjhUc47vtamK7KWgCfDF1MlfOv01uIyF4x7wNvo0t3jvgOttqer8HvifNx4LVOvGa+L1HWTHdAVc/Yt/f/w8OXfXeUbOe/zZ/Ajfk5ABww+k9qT8OfN2qd/yCEY0ZNn5UJEspxF0rHDNYudnzJbLpIN4P4uUsO+odHF2znrqFeTRu3eAfLD13bT0rH8IQ5Jwse2gRpW2xDMSOj3/MXCxj4qLk+1I0fwl5lvew7+EN3i9Hz5dw3Vo8j/fgbhpnr6Fq8nw4aHj8NVMopZV9GR3gvF2Xp4/zzAZvHPGGFfM6oxvf4BnfmLSl1dy34k7AF+S8Yan3OM+sM5ZTyxICT5AYU3Uny/1dpZ7tausr6N7QQtcsG6OBC91uEmfx2JZWc9/8WlYWGsfXeet02ld3z3a1jxRx4qfG7Wwc/9Vef3Cd+kgty+sxBbl7GKh0QO/HIcKG98dO2242PW4MP/VsLAwMOfYZa1jZtptND+/H955bsHY+h7zH2OD4UQ/P+zShJ8xfzorpDtpe3cCLhjToCXY97Hv4Qf7jhhu4ykSWbPjhkBwHwz5ogdoCvkDdQCLJoOPomtFH41ZDaDndgwsH4yYAOFk2uxzX0e0BZ7sd2ncUl8PJ1/zf8+WMc3haDrLV3LX1rJxB4HMBwHwWzHDQvsfYutHEjsOtUDaFud7bf2rqg7JvsMz/nHieO9pOJtwqEqyQF2rmsdvybxY/y42+pKJ1Tk/X5U/N7UmmdVxN/Jsh9LCzieMuGzff5m25Wuqk2m4qp6GFt05D6aSiwAIDWrDcHGjoAvt4ps6Kvt7RsHxsO4+z9zSMqSwioFanj/OMf70u3jsNjLV517Exb1YR5xuPB7Q8ntjXxPmget/MF2Ng1AfW47cql33DE2iMP3YOPsu+NrA77yDgPJeAH0Xm91xqGI8DY4AjZz7frHbQvvd/cCgnh8+vXuWLLz5kZ0MbV4fiOOg8w3AqGFCXqkhSqCXumtFDl/EHctN2nnh4u/eGJ5zZZ6yhzuIX/rgJQBPAfvYd/QYrfesNQYtcMtlnrGEB0L4neGoGnMWMw9xt69NHkRNoguYdf6R9xiIqZzihqQmcd1Dp6KNxRyqeh25WHzyQlJIK82xwOnzXZWGeDexOlm9xBt+ZZwPcFBXaABu1W2qpNa/j8oQhf5TqdQd2QbZf4DxF5JUC7XE+kFD1tnhsJ97vonb+aAqNdQrLRp7d01p335bge/NKAV+4K/4yA4T+gCzNd0DbH4MCzaH3WlmwMI9SMA1TMDjdgwun/z2XbGGPg4nF5OWAvfYJHltgvCOHnLQdByISL4W460g0c7X5u3Zq1lO3cBF1mxeFGDuXeVxHn+fN/DUsWPgoy05bfIFhPWYp0H7eb1vEAucdVNIEM5zY2/5oWVZWCjH+K1Aic7W56WkHGtxcWAGjCz3hMJMETnESQufHqftwnJBHKicIieo42LuRFw/CVSDHeIdvzFxKj4M+buhMRjkiou7U60Ir5/rAnl8eeVWfg8+y6eENbNrTCgFdrpnt0HPP09jnoGrV+sDuqqZOzgHjCiM/kMFuZs/jbtyXqtaH5HWnAoZuQ6/S0YOD94HuHjfYPS1XoXR1uwEbRfF0iZaOZgxuuhrA15U5psrJ1DiKMuruccOE8UHlTJ1UBK4LdEddkpseF4zJs0VelY+44TxcvOXvLe9tP9tn2SU6d3I59PWEbYisLMwjqOU8ycIeB1dhXMFErl69ClevctX4ZywjFcdBcQFXOKMQJ5IkCnHXBd84nEVsXBZbGgv6wgkKQxZns8ZUNU95pZPnx1uCuUB2PL6bdspZsNn4BbaffUf7sM9Yw+qaSEW8RXOfg6pVa6iiiT+l7MvW0526yPKvgQf7oy/pxPtdYHdy11LvgqXV3Dc/cAxb15Ym2imitr6CouAiPLxj5KpXVMcWvmZVsHJ+UcDZqCf2NXHeYn+eeeKiL7rryCeech4xlLK0mtoJ0N4QqVXRyDtub0I1K9dFCnK/YVhzH5RXMWBxb/PRJlyUs2Ct4X1bs54FZdB+OEyrtXM5y2Y4cB3dnYIxlkZhjoNjvuMgB3IG2+FuuCEnsIhTyT8OBm6pgPNn9MUjkiTqTr1eHHyWTaynbqFpXJyxq9Q8BQkQPNXBfl7YM8VQTh+NW5/n3LI1AYO5566tZ0GZYYF/PJ5FeVuL2bjK23Vruc9Y+cqcwYLNj1LkvXxR847H2MajrDSPiwsa++cJvVULy8N/IWeSncfZXngny+fXct98PN2m6z7hri3VhpW6eHndcZZsqTaNizNOM+LmwIY3oP7OoHFx7ebLd02oDhhbFnR/QwvbGrqYV39nwP7ON77BNt965uk+DOPx/N2eDS1sa3CzZItxf+6AM0xjeZ6eoZr75pvGxVl0M99w4j2Gz7idS9+8J/hyW03beeLhTlZvNr5v+wLO/oYmus4BZcZ1ounST5bwx8GK2id4zPgCt73Ko88bjoOrp9h5+COqFt6cnOOg+BdcKodRezW9iEiy5EyeNvNqfkEB53t7GRiw+s2ZHplYp5vLJvDxp11cvnw53VW57gwsfZs+hvCyWzXrqVtIVGHSc9mt9zLv2qkpY5iGJMzZsNeCL775B87PODOkl4sanPcxODjV1b/DUobwsltz/28eW5jD/kciHweey26NC752KuC7/qy7N4MunSdyDbg+vnNEYuFczsaF5abpSOR6dMMftmI7X0HfA7+z7FZN3HxWP7Tc0IrtmQrH1fRW+luAJ36f/6e2nNP7fsFrCRY1sPTvcI9pwaEAJ5JU6k6V7FH+Xzj3wH8BYNTe2xkZcib9+Bhnzo/Y5VX8C1z33M4V3+3zya2LZIrfMOKXwA//zrpbNWH7eeHweuo21/uXRDyL/Ob3OOmdHPjUv87k279Obo0mLt3EX89wkJOTw+m9G3nxwBcBJzwEmNNDw4+aGe273TcueJ3iX3CpvGVIWzNFrhfqTo2BulNF5LqRkwNXQ8Y3EckA6k4VEZFgCnAiGU8hTkRERCQLKcSJiIiIZKFhY/OKgC9wjM4LPXg1LTKvTjVzvh5xnd//e6LncYmIiIhEppOFYvS7PXtC3ve9hUFXVpdrTEV5CS2tHVEvj6WMZJYTa1kiIpJ91J0qEqWK8pKAf9OtpbUjY+oiIiJDTy1xImGYQ1KiLVvmIJiqljK1womIXPsU4mI15kF+Wz4BgI9a1/OgJnm9phmDkFWrlzksRROeEglXoeoQzboKdalmY3z5WEbyORc++ZSzmTad5IixlI63MXC2g09cyS3aUfRl8of383FHL5n2sEWuZQpxsTr/M77fiDfM1bPx/Q088Vm6K5Uu3i+tATcdQR/ew8kvKWL0sM8403qGvjTVMBoj8r5EieNGuNRLS6c7obJ8XZyxjJszhy3jbfP6WRnERoyldPxI+s3BJoWhIlM5iksoGGZ1vBjYC6jIH5aZQTCUnBxy0l0HkeuQQly8zu/j6GcruGXsTOh8J921SRM3n5wdRUW+jeI8N+09Vwbvso9h9DC4dDaDA5w3RNDn5hI2RlqsEipghQtTVkHOdztU65jvX+N24ca7Wd2X6AkXkig3n7Qm9iNARCQWCnGSGNd5LowpYrRjDI4eX2AbTv6Ym+BSbwa3sNgYP34k/Z90cPayjfEO67XCdZXGEpCMYS1ZwSpUV6+Cm4jI9UEhThJ0hbPdbnLH2xibN5y+niveVrjPudBtapWwF1CRf9PgbXM3rFU3Usq63GJrNYn1LFCFqNg5iksooJcW9yjD+yTE+DLTe2mgryuwJdjfnT+45JLhPTQi70uUjLrEmYsjKXDc6HkvdkPxeBvD8A4BsBdQkQ9nzkJB/k3AZ5xpvYg9aNybbyycj3kIgfl+GyXltqC6O4pLKDA0B48eXzJ4YXnzseI9LoaFuj/EcwAQ39WozWVZDJMYuMJlewE359/k7Vq1WMf8GWBex/ec+59nb9FBr6/5OfUxvV/M+7MaMhFUp8D3ikgmU4iTxF3upfeSjQLHGBw95xnhbYUzfvF6xp3BhU86vMs9Xwol5cMyfsyckbFbNJa53uLplo2mLkPBP2YQqy/TJBs5lophbjpaz3DZFxwKx9JnCCi++gSGsgLyR5wJDFWXemnp8H5h2wuoyC+hdISh/sNsFAzvpeWT4ZSOH0lx4QC9rb3Yy8d6fpBcBriJgjFuOlovkl/uYGyJg/5PurhcWMTocTbOdrox/iDwvc8DDd4fbkxcX2eH5ziINCbOf3+H/35HcQklJRjKtXgOfMMHYmYY+9o6WP6Ximz0dRkCkfe1+7jtDJ9d9bx2BSVj+cxXpxFjKbVdpKX1jHcDi3UAuImCcs/j++Sy7znNJ9/1afDr2xn4vBufM8+yAc60dgz2EJQUUVHMYJAbMZbS/JsU2iRraZ64uL3Df/RexFa8gHvSXZUM0NfZyyVuYmxJvudkhoBfuzbyHTcy0HfW8KXkacEb4Cbs9jRUOAbGUBZvd2hLa4f/z3jbuA/j9CPRBDRzmSlhL/AHOIBhjiLGp/L1CmhRukLfxc9h2DD87SQjxlLsuJGBvq6AL93LPWcMX94ORmJ6D7rOcOYSDBtlY4R/4edcOOdb50a4eN7yx8Sl87763Miwgb40n2zgGaoQeCxB3zk3A8NG4vA+OMvnIE6O4rGesgKClptPu0xle1+7z66C5Wt3uZf2gPpYrAOYW9Muuy4xwI2M8L1wI4YzDLjkHiwraB3vZ07gmNwrnD3/GYwchT9njxjGMD7ncracQCJiopa4BPyxcwN/7F3HP1Y9y7c/O8HbnEp3ldLIzdk+ByXesBbwZThiOMP4nH6XqQXnspv+ARu5I4YDKWzdGULxjkeL9cSGoTJiRPBHxLB0vl7eL90L5veSwU3Db4RLfUGBrM/9GQX5nsDgOaF8wPPl7f3iH7h8ZfCGX+AX/MCVdH/bj2DEME+YrrAYxzliBHA59HMQu+GMGAZcupiU1nJzl7FHjB28l68wAIy02cDlbYmzj2QYn9HrC/beoDcsv4SKfHMBn/ufJ/+YXm/XtVrkJNsoxCXgnvJn+fbIE/xD43r+CHyv/Pq+7NZl1yUGHCODw1oWswplViEtkdawUNtGKnMoQt7lywPAjQHLPGFH0inl3dop4Alwn1t0ecZa0mUuD8DIkWOpKB/rXfY5Fz4JHpYROZRd4WxHB2d99fOGvmx8fuX6pBAXt5mUjAR379v8Md1VyXSXrzCAjVz7cM4aPxhH2MgdltmhIJZwFmsrXKJnkYY6OzWp3auuM3SMCBwTF19LxY2DrR8+I4YFtp5E4/IAA9wUXJbBZ1c+B8coHLgDvtQdtptgwE12T+voDTDDRxCxNXTYcAKephHDGEas7V5XuDxgUVZUrnLV/39fi14SuqPtYyLPP+ltrYul1dg3JtFRXELBKBsj0MTFkvk0Jk6GgBvXJRjmyCff31s1nPxCG8MG3Jz1fYlfHjCNfTGdgRfAxvjyEirKv2QoM32GOsANpcs9n2e9erMAACAASURBVPrH3sXVOnG5l95LMHLMWENnpY3x+TfF3k3nKys/8HX3nNjgXcV1iQFuoqDYMIjfXkDBSOP4tvT47MrnYBi7Zsl7HOTah1vc6RvXNZbSPKv7Pfrcn8EwG/m+8YsWZ2BGyzPezkaJ8fnExvjiSCdJGKf/DQyDEHjCTOyGGca/WXFztu/zOMZwesPmwBUFOMkKaomTIdHX2cFneV+ixDhtgvl0/8u9dPaNpMQ/juUzznjPFgzmbZEYdqPhLMHYBI3P8XfPRH/ZpHjPMk1WgIv16hDp0tfZAcUlQVNrtMQRCq3eSwN9XbT7Xq/LvbS3XmF8ubm7rSM1JyUE/di4kYLyEgoI7pa73PMpZ4aXUGCuu/F5uNxL+9lhVOQbxr0ZT/hwnaGFgsD7LdbpGPGlwWNpwHeGrdWxFIHl8+lpCYvEGOP6Onuxl40dfA8MuOk4O4ySoDFrEbjOcMYW+Bz6GJ/Lyz2f0oHhOfAJOqvVFCSTcOUWkaGS8/U5f3H1xhu+4IsvbjA0fadfJtbpu38xh9/t2eO9NZONk1ZwS++v+BvvFRu+t3Ahv//319JXweuNt3VhqMavWJ10kOygFG34MtclG4KcSDIMTh0S2J1qNc2IyLVOLXHxuul2brkJui9dr5fcSjfvVSH4jN4hGoBsDESpCkexXgEi3DYKcHItumn4jViN7PMs/0zThch1RSEuVmMe5LflEwBwd/6KB8+nuT7XIX8XSMDkoyJyPejr7GJESZG/y9pPnwdyHVKIi9X5n/H9xnRX4vp2uedTWnrSXQsRSY/BaUFErnc6O1VEREQkCynEiYiIiGQhdafG6HsLr++rMoiIiEhmyJk8bebV/IICzvf2MjAQ4zXsUigT6yQiIiKSKdSdmiXmzl+c9ftO52MQERG51qg7Nc3mzl/Mof27wt4fzbqxBKRw+xMREZHsoBCXZof27woIZ+YwFkvgimbdSGEvUqiMdT0RERFJDYW4JCi4dTFTOcKhP3eGXCe34i5uL/6Yt988RX+E8q6FcBQqLFotvxYer4iIyFBTiEtU7kQqily0HA4d4KCYiko7ZxqtA1yyQ0wmBCWr/an1TkREJHkU4hKUW/xlct0fcyZc81phCQV0cqI7ujLDdXlGG4KM6+mEAhERkWuPQlxCwrewedgpm1hMf/PrnDEsDTf2LRknLyTCaj8KgiIiIplFIS4R0bSw5RZTbHPR2ekKWByppczc9ThUXZHRdoMq1ImIiKSXQlzcPC1sdB0JaGEzK5h4C7nuD8J3t1ownrWaiWPJ4m0tTEZXsYiIiCjExc/bwtbSGP6EhuIiInS3hpapAS6ccOEumx6HiIhIptMVG+LkaWELf0JDbsUtFNBJZ5QnNJgZW+Li2db3F8s2se5DRERE0kMtcXGJpoXNTkGxnf7mo2G7W43Mk/76/h9ri1ymtXipFU5ERCT51BIXD+8JDWFb2EKc0BANq9ATb4tcuoUKcNn4WERERDKJWuJiZj1liFnBxFvI7TpCW4TBcFYnL4RqtYrUmpVpwShcC1w2jvcTERHJJApxsYqqhc3X3RrupAfrLtNoxBvyfPuM5/54x8sl61qtIiIiEihn8rSZV/MLCjjf28vAwEC66+OXiXUC73VSbR+EvQZqbsVd3F7p5sT+8NOPZLtkBDCFOBERkfhoTFxMvC1sp6I5oeGDazrAQXJOoFCAExERiY9a4kRERESykFriRERERLKQQpyIiIhIFlKIExEREclCCnEiIiIiWUghTkRERCQLKcSJiIiIZCGFOBEREZEspBAnIiIikoV07VS5BjhZ9tAaqhy+2300bn2MHU3prJOIiEhqqSUurXL52R3z2D21MN0VyXJN7Hh8A5se3sCmPa3hV61ZT93mR1nmHJqaiYiIpIpCnIiIiEgWUogTERERyUIaExejJeWzuLf4U158q59v1UyjzLvc1dLA0tb+wRVzy9l5RyV23+3+Zl58q5WXre7LncbumsFN2949wOozg+v1+G4DUMgLNdPIM+wvmjr9eOo8vsW7LOosZvc0X/dtP8feauBBQ7Uj84w/q2x6nie6F1G3sNy73GIcWs16w/1A2242Pbc/sDjzOkD7ng28cNB4f15g2c7lbFw1g3PG9SKYu7aeBWWDt6tW1VPlu9F3lG2Pb6c5uqJEREQygkJcPHIrubfGE7YWnQEKprF72q38rNsbiAqmsXuajWNvHfAHpB9Pnce9dwBvtfJyfytLD7biGRM3i+nud1l0oju1dQIonMZuWzMvHnyXl337nlbOEl+4jIF9xhrqaGXfwxs4hDckLVvOn7xhqHLZo6yc0eO/3xf+6tYyGOScy9m4sDwwtKXIoee89bAKhSIiIllI3alx6efYW4bWsf4+XOSSlwuQy88qC3G1/DmghevnLc24cr/E7bnpqJNvmaE1kH7e7uyHXAdlQWVFoe8o2x5+1hvQoP1sHzjyKAVgPgtmOGjfM3g/NLHjcCuUTWGub9GEPOz0ce50PBUQERG5vqklLi5uOo1dkP6WNQAbeblgr5jF7orgLfNygZi6L5NRpxQ41xnQ/di84zE27fDecBYzDrAvrKduoXnDPoqcQBNwcDeNs9f4uzaHokVORETkWqEQlyJBY+SuQ5FDmWdqkB14u2O9oc919HmeUF+niIhIWOpOTTo3Pf1gt9vSXZH0aerkHDCuMPrJ2A4955nnbV8b2J13UJm62omIiFwTFOKSrp8Hm7uhcBo7yyMNgOun0w0UFvNjy7v76QHybL5yPGemxjWGbUjtZ9/RPuwz1rC6JvLag5wUjSOwq/Z0Dy4cjJvgW8VzZqrduoDIvOVVztBsvyIikt3UnZoKZ95l0bvT2D3NNC4u4MQCj5+faKD4jll8q2Ye3/Iu808xQjer3+02lOOZEqRn2iwyPYI073iMbTzKSvO4OMM0I54zWB2BG5qnIWnazo6jTkM5rex7eDeTNi8ybDSf1ZsXeU+q8PBPIWJR3hN78qhbuIa6Gd5lmmJERESyUM7kaTOv5hcUcL63l4GBgXTXxy8T6yQiIiKSKdSdKiIiIpKFFOJEREREspBCnIiIiEgWUogTERERyUIKcSIiIiJZKGOnGDl75kzklURERESuU2qJExEREclCCnEiIiIiWUghTkRERCQLZeyYOAB+8Aknv90BwKl/ncm3f53m+oiIiIhkiMxuifv1eKYsm8mUfy1h4rdPsW1OuiskIiIikhkyO8T5/LqAN/vO8dXZV9JdExEREZGMkB0hTkREREQCKMSJiIiIZCGFOBEREZEslCUhbjivvT+O0TPPUJfuqoiIiIhkgCwJcbDtiYlM+YebWLjjHU5u7WFluiskIiIikkaZPU+cQV39OyzNr+TJZTPZlu7KiIiIiKRZlrTEXWFCPlx436EAJyIiIkLWhDgRERERMVKIExEREclCCnEiIiIiWSg7QtycPr7qgO5Ph6e7JiIiIiIZIbPPTv3BJ5z8dgcAF96p5tu/TnN9RERERDJEzuRpM6/mFxRwvreXgYGBdNdHRERERKKQHd2pIiIiIhJAIU5EREQkCynEiYiIiGQhhTgRERGRLKQQJyIiIpKFFOJEREREspBCnIiIiEgWyuzJfiUqo5b8M9On2/23Lx57nmMv70xjjVJsVgUrVzi5sH8vmfswbcyrv5Nq/8vi5viv3uBAQzrrZHaFbVuP89X3q5n1RGxXQ6lc9igrZzj8t11Hn+eJHU1RbtfDvoef5VC0O3MuZ+OqGZzbs4EXDsa2jZ3WoH3V1b/DwjOxP2YRkUyjEBePeQ9QtTiPjhcf4eyH6a4MXHz5Lzn8MsD9TKpbzKh0V+h6sbSa++YXDd52NbF9QwtdALg5sGEvB/zr2dJSxXDq6o/zdSp5Mo4w07zjMTbtAJjP6s2LGJdQTZwse2gNVf5M2Efj1seIIhPGZdO/VLLwR8dp2KggJyLZTSFOJA5TH6mldoKb47/aO9i6NquClY8Use2nXWmtWzRWbjzF0ptL2Lksj21prYk3BB59nk3e1Fa57FFWrnoUEglyTdt54uHt1ve9lsesis84+e02ts2ZyMrX4tyHiEiaaUycSKyWVlM7Adr3m7pHG1qyIsAxp4e1M89x6l/HsynNVZm7dhGlfUfZYUhrzTseY1+bg6ply6lM1Y5/PZ6dH53j6yt6WJmqfYiIpFgWtMTdRv6meyjxd7V00PyTp3AZV5n3AFWLSwZv953kvboXuRxwPzT/5EPGPFlDvndx/5Hf0PTbI2H2FViWff3TVJYN3lVy79OUWKwX2VJKNq6h7NwuDr/wdMA9eav3Mqm0jfc3/Q09xnUHh7zFNeYtb/VeJo07xrEnNnDRu8wzlq7HsC+r/blo+9Vf0nEqpt0lmXl8mccF01qe1rHB2+1WY+bMXaCnj/OMIXhNfaSWWo7zzPvjDesFjmebOqkIXE28nqTxeEXr7mR5laG7NY46Af6xgmN8twO6dwetnH2O0X2VPPfrUDUyd29Ceyzj0QKK8o1NM/K92+YzqQxcR9+i2bTZofdaWbAwj1Lw3tfHudOmerXtZtNz+/3bzF1bz4IyU0F9R9n2+Pag8sHXrdrMkh/ksS3kcyEikrkyPMR9h5Ina8jvO8l7P/EFpO9Qsv47uJ59BYAR3/8pk2+Djhfv945P8wSxyU8+YAp7JVQ+mUfHi/fT+KFvuyXk/+mIf1ybff09lGDcVyDXs/fTCEkYE7eTnqa/omz6XZRMfNoQkO6nsBQuHtvl/5rLW/1XsLOWw7515vwjs2vXMKl7J+8nvRvIO6bu2PMc9qWfOf/I7BX/DGkLckUs2VJN6enjPLPBG0e8YWWQN+T1HueZdcZ1alnCYJDzhCU3e9ft5YRhu/seCQxNTKjmvgld/vWmPlJL7YpquhqOcwIbRWOBXndQOIqHJ3h2sXfdG946eR7vffWmADahmvvGNrF93XG6fI93aQUnGrzreMfdGbt3pz5Sy/J6TEHuCnMmnYOzxSG6UT3dm6Vtu9n0uDcg1aynbmE9GwujO3nBr2Y9dQvLad+zgSe8AdBzYoP3fmcx44Bz3aHKzKPI/zI7qFq1hvY9G9h0EG84XMTqmv3+cHnouQ0BJzDMXVvPgnCD9V5z8J8r4KtfugJobJyIZJ+M7k61r68hnw6aA1q4XqHDG+DgOxTeNor+Iy8bwtQRzv72JP2UMGaesbSLAaHr8p8+op9RjPS33NzGTeOAc51RtqYl5uLLr9ODncLpSwcXzplKHi66jw028fS8YApPr52gBxhVaNguSUYtuYs81zHeNzZfvbaLNpepnhEV8kLNPHZb/s3iZ7nRl1S0zkkpXewN10251Em13bROQwtvnYbSSb6WqyLuqrLRvv+4NywBuDnQ0AUTxjM1oMAu9q4bXO/EvibOU8TkZD/lsyq4YwKmOnXx8v4usI9n6izDuqaTJk40u8E+mkIAbMybVcT5xuMBLXMn9jVx3lwOn1HogFPvmpo1vSqXfYNSWtlnaOHi4LPsawO7844YujedLJtdDm2742vBO90T2NqOqTWwaTtvtkHp5PlxFO4znNNnYfSkPnWpikhWyuCWOG+oavsw6MPc7yvFjOIi5/50JHD5h3/iXN8UxhXfBhyx3DTYEc7+xzxKFtdQ9WRNjN2j8Xia7vbFTHLOYhQ7uQjkTS6D9l2BoW1iPdNXTA864/QiyTcq3w726Uyv2xt8Z765nyqcblYfPJCUOhXm2eB0kyHkBCsqtAE2arfUUmu+02WjCOiaZWM0MGZ+LfcFfe+7KZoFJ3wByHWBbuPdDW4urIDRhUk+w7R0NGPo4i1zt+zOT2ifX01eKRDVlCQ28uwwpupO7tsSfG9AOXMuUwiBj89YpXwHtP0xaPqP4O7NSMoZ54D2w/sjr2plQh7WMXNQ+9k+cBZTGXWdRESuLRkc4tLgwFM0HgC+ci/Oe6cw+cmnsRyDlyQ9+49xcYWTvInQccrTldqz1zBGzhfg2o1j51I8jYgrcNxc9ghsPQvFcpxclC50uz176gXGesNhfEWlxPnGN9i2xR1+pddG0P2joalPRE2dnAPGFTqBwC7VysI8oIeuJsBpsS3ewJkMZ0ek+QxdEZH4ZHB36hE+OweMK2ZEqFU+7OQioxj3tdsCl3/la4xzwMXOaFvhzOW+SNNP7qfxRatu2SQ61UC3r6tyzlTyXMdoM45zK8ljFC7a9j8dsohkunjWBfa8JATE5HWnAv7A5Fc6enDwPtDV7QZsFM0itAY3F4izNW2WjdG46Wn33DzxfhfYndyVaPdq+wXrbtql4yk17C8yNz0uGJMXzWO7ie4+mDjN+mdJ+9k+KJvCXNPyuZPLoa+HqKvk5QlogwKD137et+ymdfI1pwPaToaZENhJkXf4Q/ytcFeYkA8XztwUdwkiIumUwSEOXK+epN8xhcnrv2NY6jmxweMVzrdB7m1LyP+K7/7byP/+FHL7TtKdaI/ehNHkcpFLp03LT1+g3yo8xmwnPU0uRjlnUTK5jItNDYEtYB09XMSO3X8KrKcVLi+OPZkDmvkqD+Abp1fGpI31CQY5T3fqIsu/Bh7sj76koMBkPrsUYGcTx102qldUm8a2GXXxeqObMVV3siSm8FXEkhVOxpxuGhxvtrOJ4y4onX8n84zB0TtPXNQauvjIBaXzjfUuYsn8IjDuLyLf2L5qVq6LFOSG89r74+DmPuos7m0+2oSLchasNfQ516xnQRm0H7Y+y9OaN6DNWOQPhFZnjx7adxSXYwbLlg2Gvcply6lymMblmXjW6aNxX5zdtQBz+viqA7o/1UkNIpKdciZPm3k1v6CA8729DAwMpLs+FrxnqPpvB3dves40NcSOtoM0+k9+wPpsUm+X6cVd99NxwGo/YD4ZIkCkaU2i5gtmbaapPjzMYatn7/O4Zq+hsGlwmhHPtCRWZYeZqqR9F4ffm8rsWkz7tQqK6Z1mJGAKDlcT2ze4uWtLNQR0jVpPQ2LuPg2azgMCpvQwT1MCobspg8oKOPnAe1at1QOymkLEsE/z/qY+Ukvt2MCzVQfPtDV0IVsFXKtpRub00PCjZngn1BULvGeo+m8HX0HBcjoPgIDLXAVOCeI6+jxPdC+ibiGBl8IKmobEfKksc32s1gnmOTs19BQjdfXvsDS/kidXpXvCYxGR+GRBiBMZOlaB6Vq0cuMpfjIzl53L0j/hb6rMXVvPAgLnkvP7wSec/HY/b/6DrtggItkro7tTRSQ1tj1Rxpt9HSzd8Yllt2rWcS5no7EL2Lmcr5dB+3sWAW5ODw3f7uDCO2UKcCKS1XR2qsh1aTgrV1WzbetxFm4sYFO2Xwi+aTs7ZjxK3eZF/kWhrjJR93+G60oWEcke6k4VERERyULqThURERHJQgpxIiIiIllIIU5EREQkCynEiYiIiGQhhTgRERGRLKQQJyIiIpKFFOJEREREspBCnIiIiEgWUogTERERyUIKcSIiIiJZSCFOREREJAspxImIiIhkIYU4ERERkSykECciIiKShRTiRERERLKQQpyIiIhIFlKIExEREclCCnEiIiIiWUghTkRERCQLKcSJiIiIZCGFOBEREZEspBAnIiIikoUU4kRERESykEKciIiISBZSiBMRERHJQgpxIiIiIllIIU5EREQkCynEiYiIiGQhhTgRERGRLKQQJyIiIpKFrpMQdz+T6vYy2//3j+Slu0rC3LX11D20nMpEC3IuZ+PmelbXhF2JZQ/VU7d2fqJ7S587Kvnfz36L/Q8WJ73Mbf81eUWG2kdS6y0iItdLiHua9zfVcnhTLceOudJdmZjlrd7L7I31jEq0oIn1TK/by6Q5yaiViIiIpNN1EuJEREREri0Kcf9/e/cf2/R973v8OWk9VexvaGPieDTENLFH6EkJDuVH01MIbQglu7266kh0JSqNHz1KQKJSF42xUmVHqzW6LhWr1EqU3kuhk4Z0lbDq6FSHtiErhLUplDYmXS6EOaFxSFkSSAr+Jta5rbT7x/dr+2v7a8f5RZLu/ZD4w19//f18HKjy6uf9+SHEfHF+lGFAHZlno8nztd9CCDHHfX+2O5DU+iOUVtgIHHuK/m7DdVcDnu0e8B3Gd6LJcK/TcFOArvpnGJ5Ie/pzQ80VdLWGL9ZR6K0kw9iWWXt9J2l78+BEWot5fsz8vMiz4t/z4PE2R16F4vqUseUdPB4l+hzVh+/lvYRM3suoaKa0IvzK8LMy+5mb/lyqyN1Xi9PQnLG9CRkZoGfDHryblugXejm1/3XOxNxUTs2BzeRFXgfpeOtFGv3Ge4KMXHNT/XwtxZnhr/Ye9W+0xDxJvdlLQfUv2VESvsnQnt6Pvg/28ubpxPaz2g/zcmyjd9gAO/a8n/ztNQX8+09+SOSvRf0rb/yih8aYm6y88ptHKVFiPxr734qDo697cBJvlPbf/5mfnddf/thDy+OGeW7XfJT/ZmDi/RZCCDEpczfEtXYyXFGJs7yO/u5oQMrwuMkgQFc4wLga8CzrpK3+Gf0OLWAU7muYXKgYhxaIhumqr9B/8WntldYwwSBXRe6+SmxJA+BBuuq167aaZgqzUoSk9Uco5A+01YdDnRYAPTV1tL15kNCJp2g7QZJANnG2mlqc+PDVT8PP17kZb1Y7R/e/Tg9aCNv4/Fb6XjpOD2iLFnaWQPth6vUAVVD9S3bsbCArJmxlUryzlr4P9lJ/Ovy5zdRsaIkJZEpJLTsC71G/vwXC7e0q58wbLXD6PTpKayleVg6nDeFvwwPk0cupWQ1w4/ixh5bHFdp//34kZP3sF0+w6zdAJMjp4eyaj/Jf6GFLD35Rhnv0QFZd+yi7lhMT4LRrKif3vM8rQDgctvwiWZATQggx3eZwOfUgAZ8KeUWG0agqbG4F+jqjIwfde/HFhKAmhv0qKLapLwRIUIfTozDcbBzla6K/LRDXz3Q4URQI3QxMvVutz8SOFHKQoT4ga9EM/AyqyMgCRq5PT0AOtnM0HNjw85k/CJm2yKhb2cYSlGA7jYYA1dN4nI4g5C2LXWkaM4LmP84ngcR7Ykfn/DS29YLzAcqM7Tv/hWp3+ANuqkuXQOBS3OjgOLIf5L0Nj5n/WbOELRN51risvLLGgfpFe3SUDHjlT39FVe5j7RrtdXXtD3EywMlUIWuNFRsQuBK9p7H9K1SsLFwcvuLgR8utBP7k0wMcwCg/Oz8Aixfxs2n7XkIIIVKZuyNxQMjnJ+TxYF8Pw62Aay12RSXQFDtyZatppjAv/tMTKqamx6WFothyZJhKhgvoTvyYuYMEfOvweGop9dROoSQLpuVNrUszoIn+tkqcFZWUeisnX0ZNi5ucLFD95/WQF6aFrWK3gwKIey+q72YQxrmHa8OouMlxA37oafyIvpLNFJS4we8H9xoKMoN0NLYke4K5G39h8+nxb5seCgsVUJY/Ssvrie8uXAychyVZVrj2V0PwMnF+lOGfgHOpA9BH4kruQ2GAs3/U79GDnvL4E7Q8Hv+AUX6wRmtPCCHEzJrTIY7uvQT6milcVgetB7VSqupn2BCUtACnxszj0kqeM9et4SmWI8MiZc71RyiddCgKB7jYeYBaCXbqfTTV+gxtrUTKs9pcvUnMQ5xheQszx79psY3Y7NtCV2AzG91rKMAPJW6UwEfM5UpqmPrFn/kfh0en+hRuquBc7DEEwlHaf+9LCH+BP73Pjj8ihBBilsztEAcMXw5ARRE2qshwKwy3GQOOXtrrOxu7+GGmdF8nhIcMexXQNO7taQuHovVHKK1wY3Mxge+jl2V9J+98gOrei6+eSJiLjJhOGz+DI1CsB6roaJqbh9yZ2qKIpJ/VRvFS3wMFdhswzKAhpJ051c7DO9085HaDm4mPwoFWTn3Qbv7eWA//63wvJyb+1CT04JWlAOOEuHutVEN0scPiBSgYxq1//ENKlAFO7kkMbRH6aJ3Nbh2/PSGEEDNmDs+J07V2MowT+5a12JUAQzEhoYnQCDFzvxJWaaarW5vjpQU0MF05qs/Ty/DUprVhbkH1L/EeSP9Uggw9UITiAlzopgqKFu4SBVBVyFgYXUtoXl4m8h1ty+rMO9A/TAgFJVd/rYezcefV5drIQEXtT3yrbFeD9jOY5EkJZy73QmYJ1dFJahRUb6U4M0jHqeThKp17cG+luiQTtf292Plu/vP0BLWFEsX4+Wwyo3A3/sLm0x+a/5nWAAfR+Wge/r3WmvSuV64MgPJDfhQ+nSF+dWmEopVEkxrgP78YRVn+6Mye9CCEECKlOT8SF5075iHkO5ww2jT85kmGvZXR7TdUH75mGx7jnLWEMKJQqN8f3arjIF3NRZRW6HPUUAkcO4xaVYtxPCV04il8vIMnfl6cyZy2lOU804BkXpIMnXiKroXNFG5vjmz7EO13E/1Na7Fv18uxel98vnV43HEP4iBdxxbhMd5rbLN7L10+43cL0FV/EnvkXjAPt2riVjBAZDRsKk6/Tv21rezbWYu3JHwxbhsS/wAjQN6mBrybktyjj+rh3Iz3wObI1cTtRLR7G9t6Kd60hL624ylH8uaMP/oox0PL43Hz4ozbjPzRxxv2R9kVnsum/pU39lznR697Yp5zcukTVP7kCVp+EtuEsVzbePjPUGt4VljSbUaEEEJMt+8te3DV3xdmZ3Pr66/59ttvZ7s/QswNG/bg3YTJnnXfbdGtQ2LLqWbbjAghhJhdc7+cKsSd5t7Kvk1L6PvgHyvAgb6CNel1lb9JgBNCiDlDRuKE0BlPcjAvs/4jMD/Rwfz0ByGEELNJQpwQQgghxDwk5VQhhBBCiHlIQpwQQgghxDwkIU4IIYQQYh6SECeEEEIIMQ9JiBNCCCGEmIckxAkhhBBCzEMS4oQQQggh5qF5cHbqPLT+CKUV0QPpzc5VnU45ux9ha3F0p/1bHR9z9NDojLUXz9twgSqW8cDe+B1ix7FhD95NS6KvA+9R/0aKA+vD3FvZt7OE78bofAAAFDBJREFUkQltyOum+vlaikfSbAOAcmoObCaPIB1vvUij3/DWtutcKrub3+60cTTdLqQpe3klRXzOmS+Sn0FqyV/HasdXfPpJN2PT3L4QQoj5QULcTGh9hrZWgCpy99XiHO/+KRo89DGvApDDlkMrWDDD7Rnt2NdN1f25NFVPMMCBdrj9aYgErCn2pWxXAxuN2XkmT114O5tPyi7y87eA6QxyFhf5OSpX21IdIu8gv0DhRsckApx9JWXFjujr0SumQTB7eSVFOeFXKlfbzhKQtCiEEHOKhDgxeduu8/NV8Mlri6if1Y4YRtn266NsG/bg3dRADVMJci28uT/ZqN1d7Ni5jHcbL7NrXyZHX75rso3EsDjuwzL6FTdSBSZ7LtkM0Dk00Ye7WF1s5WrbST2QOSgqX8nq5WrMqF/28kqKrFf4tEULd5b8dawuXQcS5IQQYk6ROXFiklTefbKf2xec7Gid3Z4UVG+lOLOXU8Yy6enXOdoeJG/THspmrGWFJ9/NZcGqAEfXT8fz9BG27lQjbApOl4OxnivcmOjjx7r5tMUYxAa42qNCTi7Z4Uv2lRTlqFw1jPKNXW3n6qhCvsuR8EghhBCzZx6MxOklyUi1LkBX/TMMG2+Jn4Om+vC9vJdQzPvQVd+J3VuJTb8c8h3Gd6IpRVsmzwIytryDx2O4adJz3uLbUwkce4r+7kk8Kq3mVvBceU70tern+N6rDBrvWZvPju1u7kn48CDNuy/SGX65LYiLXJpSjEAZD5QH0p/zlkAfacuMvTqiv/eQOxMCH3Em7lM97X7UEjc5bkCfz6be7I3rVy+n9r8e+WxCn03uiaGXVR/+7yq0mpWUXWz71b+yakGQC28c4O2uFF8znRE2iwOHVWVgQE1x00RZsViAMbAoVogfCbQ4cFgBq9a/CYdHIYQQM2KOh7g6Cr2V2FQfvvpwkKqjsKaOYT00aYEKAscq9PCjBSOP90hc2HNS6LUROFZBV3f4c0+T62uKhCZbTS1OjG0lstU0U5gXoKv+Kf3ZWh9L9y1KCHvpfLcM32HawkFy/RFKt78DMxDktMUPcPFYMx+eA7DyWMMjbD20IBrO9ABHx8e8qi+MKHqhgorFcQEO8D7YD8ECepK0p81P6+XU/hf18KMtEvA+7+DoS8eTfi6Rvrgg8B71L+kBUF/YoFlCViao/t4kn88kazGREKeU1LIjEC67auFw465yzujhsqfxReobo5/WQl2q/t1Fa1cWDxf+P3bAFObGaSNsDH6eMiRlu5ZiGb2Sutw6ARZFAQYYGzO8HlWjI4H2lZQVQ2fHAEXF0bAnhBBi9s3pcqqtphIbAbpiwtFBuiKjXnU4PQoh3x8MoaeJ/iYfIZzYY0pcsaNcIZ+fEApKbvj9KjKygJHryYOYqwFnHgw3G8PhQbqaA6C4sbnS/24ZW9ZhU310GUcCW08SUBXsnqr0H5SWHNYVW7nVcVEPcACjfNjk5xY5LAs3l7eAexjly8+jK1s7uwYBKzlrjc/7hsUL4XZXpnlocW/lYSf0fWAcvWrhzQ96IdPNQ+70e15Q/S/kEVcqTZd/QB+tM4gZDfTT2NYLzgemVHI9+jcLZI6w3rSk2s3b//Y8z/50nFE4fYTtanfqBQ2OHMYpt06AfSVFORhKswqW6CJnLPnrKHPd4tOW1MFSCCHE7JjDIU4PVX2dsaVTI9ciMlAZ8jXFXu8+x5AKGfaJhKEm+tsCkFdJqbeZ0n0NZMTfkmsjgwBD8XPAWjsZjgmE48tYqIDiweNt1trzNlPq1UqrGQuneT3rWisL4sIZAOcG+VKFBXb9N3ffbW5h5f6V0d/kRYU5oF6n85zxg/+FPb7iaLTYhkIvXfELCk5foi88MpamvIWZELhkXsocj9tB1nj3XBtGxaaVXGeRNsKWekGDJX8p2QwwMNEFDaYPc7G62AGjV+i8Gi7Nqozp/0Syl1eyWrnCmZiVq6ORETshhBCzb46XU++w8NYgrgY827WAZToHb7qYzLebVedGub0d8oof4blD4YuDNO+OmzfH3QwFwX7HO2iml5Eg5C1cQqRmGrbYhkKQnmspPr7YxiQ2RzFh4dqkF3joI2wptwxRyHYojPW0T31UzOJidelSLAzQGbe9yJiqQsFK8nvOcuZqdN6dRbECd27vQSGEEOObwyNxTYRGgKxFiSNiYd3XCWFSfnStxa5AaKjJ/HPj6d6Lr76CtmNxZdn+YZMyLbC+CBsqan/6TYRuqqDYkn+36XRulNtxI2wArM3hfgVuD2m/nHN2u8lT/Rzf3cyrkT+xc+E0d3HtJiwoDLLDrL1rw6gsoXBD3PUND5BHkJFUocpMloMC4+uY4OXnM3/QtCRatmwJBP18FpftjArsNmCYwRT3jGfHD8YgePcE5vnF0Rc0pBxhm7YFDQ6KwgHOpEw6po4C8e1oAZLBfimrCiHEHDKHQxwMt/gIKR48NXWGq9rCBs1Bhvogw/M0uZH5aFXkVnnIUH0Eprr1Ra6NDGM408u0toojkRWuUEdhhRP6zk5oMULoxFmGcVJoVrZNUE7NgQa8BxqoiQ9GaRnk8jW4p3gFj0Xmtll5rMrNPaqfs8asqyxIa4St/i+5yeeB+c/TEyRue49yajYtgcBHsScfjOPM5V7ILGFj+HvHn/IA9DR+RB9L2LirPHpxwx42OoN0NKZYROHeSnVJJmr7e5Mr1wLwDesLR+DmPyVZ1OBi269e4rXfvUTdRrP309syJNu1FMvglSnu06bgfHiltgI22Ty3oSvadiLFLiz6JUt+CfnjztcTQghxp31v2YOr/r4wO5tbX3/Nt99+O9v9MaGvUI28Tixvjrvlx/ojlFbYYrfv0EumoeYKulrN2oFkW35oK1Sjr+O3KknoT9LnpdmmvhpTwfwUAm0FqUlzcduCxB/PxbWLvPprY6FUW7G6wqTrfS3NxOzGgsq7jZdxfZn8uK34ExTU9sO8bEhw5tt5AHHHXMXcF2zn6EsDbDywGWJ+FuEjssyfYdYfGP9UB63t4eRbjGy7zqUnx/jkNVfS/fKeeO4lnlwC9H7As69+GPumxcXq0vsYSLmRrrYpLx0nJ77Br7Gp/HWsLkhSPB40HvOl4Hx4HfmRfyopQp8QQohZMw9CnLhTil6ooOLexL3jkm0zkk6Ame8Kqn/JDrc/ybYoWpC1X1jB2lQnNhT+T369y8MCkxAXOR0hxRmoWvgalSAlhBAixpwup4o7yUrOvSmuq7dJGAR6exFNX47w8LPd03RiwWwrp+b5rYb5d+VsLMlE9Z83CXDfcPSty7iCBbwxzpFbT1R6WECQCyfjRuHS2jIkvKBhEic0CCGE+E6TkThhkMOWQysMJUldQtk1lrfhAlUkL6vOK3Fz7uJLwBHbrnOp7G5+u9OWdIPfpU/v59lVmUCAd396iPdnpMNCCCH+UUmIE0IIIYSYh6ScKoQQQggxD0mIE0IIIYSYhyTECSGEEELMQxLihBBCCCHmIQlxQgghhBDzkIQ4IYQQQoh56Puz3YHvpPVHKK0wnO8UfwzYNIs/TutWx8ccPTQ6Y+3Fm9l94uKP0+pNfgTWNPE2XGDTjXFOYZhB2csrKcJ4DFYiS/46Vju+SnnSgxBCiO82CXEzofUZ2loBqsjdV4tzvPunaPDQx7wKhDfrXTDD7Rnt2NdN1f25NFXP1Ea/Lby5vwUIn2M6Q80Y1P9HAZuevci5fbMQ5Cwu8nNUrralOmzeQX6Bwo2OyQY47SzWbFSump7ZmubZqfaVlBU7Ii/Hes7y6VV1Uj0SQggxcVJOFZO37To/XwWfvLaI+tnuy3RqtbH23VwWrArc8ePELI77sIx+xY1U6cyeSzYDDCScgza+7OWVlJXnEuxJFrYcFJWvwzFwljMtJznTcpLOwXDoM/ZhJWXFVq62afecabsCBetYnf8dOLVDCCHmCQlxYpJU3n2yn9sXnOxone2+zIDwubDbh9lxxxrVR9jGOUvV6XJM6ixVS/46rUxrNqoWuWcp2aNX6DSMqN344nNu4CA/EtAcFBU7GOtpj47ijXXT2aNiKVgaG/aEEELMmHlQTtVLkpH/wQ/QVf8Mw8Zb4uegqT58L+8lFPM+dNV3YvdWYtMvh3yH8Z1oStGWybOAjC3v4PEYbpr0nLf49lQCx56iv3sSj0qruRU8V54Tfa36Ob73KjGnoq7NZ8d2N/ckfHiQ5t0X6Qy/3BbERS5NZuXGDXvwbrLR8daLxBw76t7Kvp0lYDyPNO6s0knNedOfO/LBXt48Hb6ozaXLij/7NL69wHvUv9Fi+litrNrDlm02jr5tdsdj1P1uE/nTdTaqPsLWmWqEzeLAYVUZGJh42XLs6tlxf64WxWwkbZTgKGQrVkAFi4KF+D4oZDsUQMFhhxuTGCUUQggxMXM8xNVR6K3Epvrw1YeDVB2FNXUM66FJC1QQOFahhx8tGHm8R+LCnpNCr43AsQq6usOfe5pcX1MkNNlqanFibCuRraaZwrwAXfVP6c/W+li6b1FC2Evnu2X4DtMWDpLrj1C6/R2YgSCnLX6Ai8ea+fAcgJXHGh5h66EF0XCmBzg6PuZVfWFE0QsVVCyOC3CA98F+CBbQY9bY6Uv0bdpM8cZyGv3RgFRQ4kahl1PhUOXeyr5ll6jf/7p+h5vq52vZ+PxW+l46bv7sKdDm1A1zav9ePcxo7Xl3YR7kWjP5v9vhn3/wDTDTc+O0ETYGk4+SAWS7lmIZvZK63DrtVMaM62Ss92BhlLFIH7RyKx2fc6N4pRYEh2RunBBCzLQ5XU611VRiI0BXTDg6SFdk1KsOp0ch5PuDIfQ00d/kI4QTe8x8pthRrpDPTwgFJTf8fhUZWcDI9eRBzNWAMw+Gm43h8CBdzQFQ3Nhc6X+3jC3rsKk+uowjga0nCagKdk9V+g9KSw7riq3c6rioBziAUT5s8nOLHJaFm8tbwD2M8uXn0d/YnV2DgJWctcbnfcPihXC7K5Ojpu21cKo9CM4HKItcc/OQOxMCl6KjQf7jvBwTnvx85g9Cps2wGnW6lLOxJJO+D4yjfH4a23rj+ml0F9duwoLCYJKS6occ/OnzPDsdo3D6CNvV7tQLGhw5jFNunZobfxsA61Ly7YaL9pUUGQZwLYrV8MLF6vKlBNtOph5BFEIIMe3m8EicHqr6OmNLp0auRWSgMuRrir3efY4h1YPdXgU0mX40URP9bZU4Kyop9VaallHJtZFBgED8HLDWToYrKrVAmOYIWsZCBRQPHm9z4psLp3k961orC+LCGQDnBvmyys39diswCn23uUUO96+0wjl9JK4wB1Q/neeMH/wv7Jmpm+xp96OWlFC4Ac6cBtxrKMgM0tEYO+JVtquBjQlfN+nf+OS5HWQByqYGvJvi3wyS4wb8iR+7U9IZYbPkLx2/3DpVQ59zpmMlZcWV0WA7+Lm2uEF/Oabq/47sKykrhs6WszGjh2OqjMIJIcSdMIdD3CwIbw3iasCzPRywTObgTRezoDibzo1yezvkFT/Cc4fCFwdp3h03b467GQqCPeEBBv7jfBIoYeOycjjdopVSg34+MwQlLcAFY+bOzfQ2In0x8+bSdPOfkow4Thd9hC3lliHanLOxnvYJL2iYsKHPOROTtRWcD8PYgB7eRm8xxlKKXFf4tMXQZ4uCBWTfOiGEuEPmcDm1idAIkLWIjGS3dF8nhEn50bUWuwKhoXRH4eKfuxdffQVtx+LKsv3DJmVaYH0RNlTU/vSbCN1UQbEl/27T6dwot7FqI2xGa3O4X4HbQ9ov55zdbvJUP8d3N/Nq5E/sXDjNeGVGzZnL4VKlVkrtazPOc3OTkwUEPopd/DBT/AOMAFl29wQ+pJeNb9w9U73SpLNlyBQWNEyZfSn51gGuhlesjqmMAWMDAzGBzeK4D8sktz4RQggxcXM4xMFwi4+Q4sFTU2e4qi1s0BxkqA8yPE+TG5mPVkVulYcM1ZdY9pyoXBsZxnDWfY4hFWwVRyIrXKGOwgon9J2d0GKE0ImzDOOkcF9DGkGunJoDDXgPNFCzYYLfAYBBLl+De4pX8FhkbpuVx6rc3KP6OWvMusqC1CNsuvq/5ELmCOtT7aN2+hJ9LKGweg0Fmb10xYyA+RkcAbIcFOhXtFG4ceq0ZhICWvwpDxCep6eU1Kb/M1wf5J8zYehvyRY1PEbd717itd/tZ1vhxLutSW/LkGzXUiyDV0w25p1Zlvx1lBU7uNFhXHAxwNUeFUtBCU5L+EYXRQXKpLY+EUIIMTnfW/bgqr8vzM7m1tdf8+233852f0zoK1QjrxPLm+Nu+bH+CKUVttjtO/SSaai5gq5Ws3Yg2ZYf2grV6Ov4rUoS+pP0eWm2qW+hoWBeDtRWkJo0F7ctSPzxXFy7yKu/NhZKtRWrK0y63tfSTMxuLKi823gZ15epj9sKBzM1fqsPICFsBds52mZjxyai24wYvns8NelWJUE63joO1bUU+GPbNQ2KSbYZ8TZcoGphAb/daUtSTnWx7Vf/yqoFcPvC/+aFP0xiSbHFxerS+xgwPTkhLLz6c4qLBywuVpcuxWL23mD4mK+4jX1HryQ92suSv47VBdG/mRtT7Z8QQogJmQchTtwpRS9UUHFv4t5xybYZYdt1Lj05xievub57G/6m+9027ua1/+acdIjLXl5JkTV5UIJwWBo1P/pKCCHEP6w5XU4Vd5KVnHtTXFdvkzDIEj7V4NnuO3481YxaP8y5tE6jcLFtnRMI0DqZUbi0tgwJL2iQMqUQQohYMhInDHLYcmhF4h5tCWXXWN6GC1SRuqw6n3gbLrDpxgrWmp1GoXviuZd4cglw28dr//Z/uHLnuieEEEIAEuKEEEIIIeYlKacKIYQQQsxDEuKEEEIIIeYhCXFCCCGEEPPQ9wFu3pB1b0IIIYQQ88n/BxTuTT97gpt3AAAAAElFTkSuQmCC;" vertex="1" parent="1">
                    <mxGeometry x="60" y="70" width="625" height="642" as="geometry"/>
                </mxCell>
            </root>
        </mxGraphModel>
    </diagram>
</mxfile>